<?xml version="1.0" standalone="no"?>
<!DOCTYPE svg PUBLIC "-//W3C//DTD SVG 20010904//EN"
 "http://www.w3.org/TR/2001/REC-SVG-20010904/DTD/svg10.dtd">
<svg version="1.0" xmlns="http://www.w3.org/2000/svg"
 width="1220.000000pt" height="1220.000000pt" viewBox="0 0 1220.000000 1220.000000"
 preserveAspectRatio="xMidYMid meet">

<g transform="translate(0.000000,1220.000000) scale(0.100000,-0.100000)"
fill="#000000" stroke="none">
<path d="M9560 11964 c-256 -16 -506 -55 -670 -104 -176 -52 -391 -176 -469
-270 -55 -66 -126 -198 -141 -261 -5 -24 -17 -116 -25 -203 l-16 -159 -81
-196 c-44 -108 -116 -266 -159 -351 -55 -108 -80 -170 -85 -205 -3 -27 -15
-71 -26 -97 -19 -43 -20 -53 -10 -117 17 -97 41 -148 107 -219 l57 -62 -89 0
c-76 0 -95 4 -138 26 -65 34 -84 51 -101 93 -18 43 -18 148 0 183 8 15 22 60
31 100 10 40 31 120 47 178 17 58 37 132 45 165 9 33 21 74 28 90 14 32 37
103 56 175 7 25 29 79 49 120 20 41 42 98 48 125 6 28 16 71 22 97 5 26 10 99
10 162 l0 115 -41 78 c-23 43 -61 105 -86 138 -24 32 -51 71 -58 85 -24 46
-179 142 -292 179 -96 32 -257 42 -503 31 -357 -16 -517 -37 -695 -88 -210
-61 -305 -132 -305 -228 0 -62 20 -214 41 -309 26 -116 22 -350 -9 -575 -12
-85 -25 -176 -28 -201 -8 -57 -54 -154 -74 -154 -33 0 -70 77 -90 187 -10 59
-21 112 -25 117 -7 12 -49 273 -65 401 -18 154 -28 190 -76 288 -33 65 -60
105 -93 134 -132 118 -371 169 -697 148 -194 -12 -298 -36 -424 -97 -79 -38
-108 -59 -176 -128 -121 -122 -159 -219 -152 -381 l3 -74 -30 0 c-16 0 -54 7
-84 15 -30 8 -93 21 -140 30 -47 9 -107 20 -133 25 -26 5 -127 13 -225 16
-200 8 -365 -8 -553 -52 -217 -52 -423 -156 -495 -250 -73 -95 -103 -301 -62
-421 18 -51 87 -157 158 -244 l38 -46 -257 -7 c-326 -8 -465 -24 -827 -98
-208 -42 -363 -93 -437 -145 -53 -36 -151 -162 -191 -242 l-32 -66 3 -155 c3
-183 13 -246 54 -320 27 -49 108 -155 131 -171 10 -7 -89 -210 -131 -272 -17
-23 -35 -58 -41 -77 -42 -140 -57 -181 -79 -225 -77 -155 -124 -394 -128 -655
-1 -80 -3 -170 -3 -200 -1 -30 -2 -62 -2 -70 0 -8 -2 -112 -6 -230 -7 -283 24
-590 74 -733 28 -81 39 -138 53 -284 6 -62 21 -136 39 -191 16 -49 37 -132 46
-183 9 -52 32 -137 52 -189 20 -52 51 -153 69 -225 19 -71 43 -152 54 -180 29
-74 39 -162 40 -335 1 -159 7 -257 34 -555 13 -135 23 -193 51 -280 18 -60 41
-148 49 -195 23 -124 47 -258 56 -315 4 -27 19 -79 34 -115 31 -79 66 -210 71
-265 2 -22 10 -67 19 -100 8 -33 15 -76 16 -95 0 -20 4 -40 8 -45 5 -6 14 -30
22 -55 31 -106 43 -138 96 -243 31 -62 65 -128 77 -147 62 -105 197 -312 234
-360 24 -30 78 -102 120 -159 118 -157 181 -231 332 -390 166 -176 201 -215
274 -306 88 -111 248 -250 411 -359 209 -140 597 -299 901 -370 39 -9 86 -21
105 -26 126 -32 507 -78 755 -91 365 -20 964 4 1395 56 298 37 643 110 870
185 97 32 336 145 469 222 66 39 105 69 292 226 31 26 77 74 102 107 25 33 63
83 85 112 22 28 59 87 82 130 l43 78 -2 185 c-2 186 -24 369 -55 456 -29 83
-100 222 -143 279 -25 33 -114 132 -198 220 -84 88 -176 187 -205 220 -64 72
-67 75 -200 196 -151 137 -311 254 -505 366 -72 42 -289 153 -300 153 -3 0
-24 9 -48 19 -38 18 -199 84 -397 164 -41 16 -176 60 -300 98 -534 161 -847
274 -1138 411 -119 56 -222 125 -302 201 -84 81 -225 209 -288 262 -48 40
-108 123 -199 275 -92 153 -108 211 -102 355 5 105 41 180 142 300 130 156
179 201 300 280 107 69 180 107 392 205 78 36 417 170 480 190 22 7 83 30 135
50 52 21 217 78 365 128 281 94 523 154 835 207 85 14 173 30 195 35 22 5 155
27 295 49 140 23 289 47 332 56 42 8 139 21 215 30 534 62 1487 263 1808 382
328 122 597 348 636 533 39 188 40 200 29 281 -6 44 -16 93 -23 107 -22 51
-127 200 -184 262 -94 102 -324 294 -419 350 -167 99 -381 211 -469 245 -330
130 -1090 293 -1510 324 -248 19 -562 23 -885 12 -460 -15 -692 -36 -1210
-107 -372 -51 -877 -177 -1169 -293 -80 -32 -184 -73 -231 -91 -139 -54 -561
-239 -882 -386 -64 -30 -154 -69 -200 -88 -125 -51 -205 -89 -319 -152 -198
-108 -265 -141 -415 -202 -155 -62 -436 -184 -669 -289 -98 -45 -134 -66 -145
-86 -14 -26 -14 -29 10 -47 43 -34 79 -25 262 63 95 46 220 103 278 127 58 24
161 68 230 98 69 30 170 73 225 97 55 23 186 83 290 132 105 50 258 121 340
158 83 37 220 100 305 140 85 41 200 92 255 115 55 23 197 88 315 145 206 99
357 159 520 206 41 11 131 38 200 59 442 136 513 151 1210 256 226 34 533 49
990 49 631 0 919 -27 1469 -140 217 -44 380 -85 513 -129 197 -64 515 -219
635 -310 23 -17 70 -51 104 -76 147 -106 285 -266 332 -385 66 -168 70 -184
63 -290 -11 -184 -59 -276 -211 -401 -118 -97 -171 -129 -405 -237 -83 -39
-200 -70 -435 -117 -137 -27 -297 -60 -355 -74 -193 -47 -361 -75 -1110 -187
-1070 -159 -1455 -245 -2075 -461 -211 -73 -364 -138 -740 -311 -236 -108
-296 -142 -415 -232 -114 -87 -157 -127 -215 -201 -17 -22 -45 -57 -63 -79
-19 -25 -49 -89 -74 -160 -40 -115 -42 -125 -42 -237 1 -124 7 -147 58 -233
16 -27 42 -75 58 -105 16 -30 33 -57 37 -60 4 -3 21 -26 39 -51 36 -53 365
-364 462 -436 293 -219 642 -364 1412 -587 124 -36 271 -83 325 -105 492 -195
635 -263 855 -406 124 -81 243 -169 278 -205 8 -8 55 -51 105 -95 124 -111
291 -282 451 -460 66 -74 194 -283 194 -316 0 -16 18 -75 37 -119 52 -120 63
-181 63 -336 0 -189 -9 -236 -66 -351 -55 -111 -130 -196 -296 -334 -196 -163
-274 -208 -577 -329 -220 -88 -286 -108 -492 -149 -576 -117 -1578 -158 -2084
-85 -287 41 -689 144 -905 231 -257 103 -518 280 -735 499 -318 321 -465 479
-465 501 0 5 -12 20 -26 34 -37 34 -99 123 -193 279 -45 74 -97 155 -116 180
-19 25 -34 48 -34 52 -1 3 -32 53 -69 110 -65 98 -132 235 -132 268 0 9 -4 20
-9 25 -5 6 -19 39 -31 75 -12 36 -26 74 -30 85 -5 11 -16 50 -25 88 -9 37 -22
86 -30 108 -8 22 -15 59 -16 82 -2 44 -70 321 -121 488 -16 54 -34 123 -40
155 -6 33 -19 82 -29 109 -24 67 -56 198 -64 260 -3 28 -10 73 -16 100 -5 28
-14 101 -19 163 -5 62 -12 123 -16 135 -4 12 -6 69 -5 127 4 236 -41 553 -99
700 -10 25 -27 83 -38 130 -11 47 -36 132 -56 190 -19 58 -42 146 -51 195 -9
50 -27 140 -40 200 -31 144 -51 266 -65 395 -6 58 -15 130 -20 160 -9 52 -24
252 -35 475 -3 55 -9 147 -15 205 -18 192 -31 507 -21 532 5 12 14 57 21 98
24 153 55 277 98 386 28 71 149 315 166 333 8 9 26 40 40 69 28 55 41 61 92
42 126 -48 319 -80 531 -87 473 -16 941 141 1323 444 159 126 221 220 228 345
10 169 -53 256 -221 307 -144 44 -302 65 -473 64 -295 -3 -480 -33 -720 -119
-217 -77 -273 -107 -384 -207 -46 -42 -120 -135 -120 -151 0 -9 -166 -264
-198 -303 -19 -24 -42 -43 -51 -43 -16 1 -63 59 -92 116 -32 62 -49 160 -49
279 0 111 1 118 34 184 42 86 102 179 129 203 59 50 199 91 530 152 314 59
312 59 687 60 l355 1 161 -57 c257 -92 270 -93 829 -93 434 0 488 2 560 19 44
10 95 27 113 38 28 17 33 25 30 52 -2 25 -11 35 -45 54 -64 35 -243 68 -493
91 -264 25 -406 26 -705 6 -300 -20 -348 -19 -393 4 -64 33 -205 193 -252 285
-54 107 -38 240 43 358 21 32 51 66 65 77 98 69 451 163 667 176 140 9 328 -7
515 -45 213 -43 275 -64 288 -98 13 -35 32 -141 32 -175 0 -34 51 -157 107
-260 24 -42 61 -123 83 -179 23 -57 55 -127 71 -158 32 -57 71 -169 64 -180
-2 -4 -35 -28 -73 -53 -68 -46 -179 -100 -407 -197 -120 -51 -175 -88 -250
-166 -65 -69 -100 -132 -90 -164 3 -10 29 -28 58 -41 47 -20 69 -22 212 -23
196 -1 247 9 390 79 122 59 229 147 260 211 21 45 44 137 45 181 0 54 36 152
63 174 57 44 142 241 154 356 8 75 -20 174 -87 311 -94 190 -174 264 -367 341
-45 18 -88 39 -94 47 -18 22 -23 157 -9 238 18 101 44 151 125 232 80 82 166
130 285 160 107 27 447 27 534 0 129 -39 228 -110 258 -184 28 -71 63 -239 78
-377 5 -44 16 -114 24 -155 9 -41 21 -102 28 -135 6 -33 14 -64 18 -70 12 -17
67 -197 75 -242 3 -23 22 -68 42 -100 l35 -58 -33 -25 c-126 -95 -160 -167
-96 -205 27 -17 54 -20 177 -23 137 -3 148 -4 205 -32 83 -41 180 -54 355 -47
216 9 350 43 424 108 37 33 40 38 29 62 -19 42 -70 50 -238 37 -80 -5 -209
-15 -287 -20 -79 -6 -161 -15 -183 -20 -98 -23 -134 -6 -179 85 l-28 58 36 36
c61 60 124 153 151 220 45 112 81 326 91 547 6 115 4 154 -10 210 -9 38 -18
114 -20 169 -2 69 -8 110 -19 132 -19 35 -23 114 -7 143 13 25 101 73 180 98
173 56 461 87 805 87 l200 -1 83 -33 c90 -35 180 -101 229 -165 17 -23 50 -79
74 -125 l44 -84 -1 -126 c0 -111 -4 -135 -27 -200 -15 -41 -27 -86 -27 -100 0
-31 -23 -108 -44 -148 -8 -16 -26 -67 -39 -114 -14 -46 -38 -122 -54 -169 -17
-47 -36 -119 -43 -160 -16 -94 -57 -255 -75 -295 -7 -16 -18 -57 -23 -90 -9
-51 -7 -69 10 -119 52 -157 177 -217 493 -237 l160 -11 55 -37 c134 -92 725
-399 865 -450 186 -68 419 -102 567 -82 98 13 144 29 173 61 19 21 19 22 -5
68 -43 83 -126 154 -257 220 -176 88 -251 113 -558 191 -252 63 -443 100 -696
135 -84 12 -89 14 -148 65 -109 95 -144 163 -145 285 -1 97 11 132 124 355 43
86 88 180 99 209 12 29 41 92 65 140 65 129 86 206 86 321 0 116 28 194 128
351 74 117 221 235 408 329 135 67 364 108 664 118 293 9 634 -40 730 -107 14
-9 63 -37 109 -61 234 -120 460 -336 569 -544 51 -95 93 -190 116 -258 13 -39
47 -128 74 -197 82 -203 86 -227 86 -450 0 -172 -2 -206 -23 -290 -28 -110
-46 -154 -115 -270 -67 -112 -224 -269 -400 -399 -153 -113 -210 -179 -256
-294 -16 -42 -30 -81 -30 -89 0 -7 -24 -56 -53 -108 -76 -134 -82 -151 -113
-285 -42 -187 -43 -196 -58 -440 -8 -126 -20 -255 -26 -285 -5 -30 -19 -126
-29 -212 l-20 -156 -87 -179 c-84 -169 -137 -264 -166 -294 -7 -8 -52 -61 -99
-119 -109 -132 -131 -156 -190 -205 -26 -22 -101 -85 -166 -140 -65 -55 -145
-120 -178 -144 -33 -25 -76 -56 -95 -71 -55 -42 -176 -128 -280 -198 -196
-134 -290 -211 -470 -387 -102 -99 -229 -220 -282 -268 -54 -48 -126 -123
-160 -165 -34 -42 -99 -113 -143 -157 -94 -94 -184 -202 -247 -300 -25 -38
-55 -81 -68 -95 -52 -58 -128 -158 -147 -195 -27 -51 -73 -228 -84 -325 -10
-86 9 -218 44 -310 19 -51 93 -170 134 -215 10 -11 43 -55 74 -98 109 -151
242 -273 499 -457 80 -57 164 -120 188 -139 80 -64 121 -143 142 -273 11 -73
26 -88 84 -88 61 0 86 10 92 36 7 29 -22 177 -43 218 -27 53 -182 197 -308
286 -237 169 -381 295 -456 400 -21 30 -64 87 -94 125 -116 145 -154 213 -192
340 -15 53 -12 177 6 198 5 7 17 48 26 92 44 217 74 270 274 485 69 75 146
158 170 185 24 28 103 113 176 190 73 77 155 167 182 200 48 58 279 282 413
400 91 80 229 187 335 258 50 33 134 95 189 136 54 42 162 125 240 184 190
145 299 238 360 306 117 130 223 269 267 351 29 52 73 131 99 175 120 204 148
281 180 490 4 28 15 82 24 120 8 39 16 106 16 150 0 44 4 107 9 140 52 347 88
531 121 617 11 29 20 60 20 69 0 9 13 42 29 75 15 32 40 93 55 134 14 41 35
88 45 104 32 49 113 126 175 169 92 62 214 163 296 246 120 120 216 293 261
471 22 85 24 116 24 300 0 234 -4 254 -78 440 -27 69 -62 161 -77 205 -15 44
-49 124 -74 177 -25 53 -46 99 -46 103 0 3 -34 56 -74 117 -86 130 -249 308
-340 371 -103 73 -306 184 -394 216 -162 60 -251 73 -527 76 -137 1 -275 1
-305 -1z m-5064 -1283 c68 -32 98 -64 167 -179 85 -140 97 -182 100 -334 2
-158 -8 -202 -44 -206 -22 -3 -29 5 -57 63 -18 36 -45 98 -61 138 -16 39 -61
133 -99 207 -56 109 -72 150 -81 210 -6 41 -14 87 -16 103 -6 36 12 35 91 -2z
m1468 -671 c14 -22 26 -42 26 -45 0 -8 -126 -6 -134 2 -6 7 62 83 75 83 3 0
18 -18 33 -40z m856 -45 c0 -12 -87 -47 -152 -61 -143 -31 -498 -18 -437 17
38 20 589 62 589 44z m-2915 -59 c197 -7 464 -53 450 -77 -15 -23 -506 -56
-688 -46 -195 10 -514 68 -531 96 -7 11 470 39 579 34 28 -1 113 -5 190 -7z
m665 -287 c0 -31 -56 -170 -83 -205 -60 -79 -168 -133 -312 -158 -118 -21
-199 -21 -219 0 -20 19 -20 17 4 64 27 53 129 114 309 184 78 31 173 72 210
91 70 36 91 42 91 24z m-1565 -22 c99 -22 116 -30 158 -73 43 -44 44 -47 55
-134 18 -125 -30 -237 -137 -324 -158 -127 -449 -298 -608 -355 -138 -51 -324
-82 -528 -88 -113 -4 -212 -1 -265 6 -187 25 -338 90 -332 141 3 29 73 133
121 180 20 19 83 102 140 185 123 176 213 271 291 307 132 61 383 126 610 157
41 6 86 13 100 15 54 10 328 -3 395 -17z m5780 -67 c327 -79 415 -108 645
-208 112 -48 165 -77 192 -104 45 -45 73 -86 64 -95 -21 -21 -270 2 -401 37
-57 15 -365 146 -515 218 -40 20 -310 200 -310 208 0 13 142 -12 325 -56z"/>
</g>
</svg>
