<?xml version="1.0" encoding="UTF-8" standalone="no"?>
<svg
   xmlns:dc="http://purl.org/dc/elements/1.1/"
   xmlns:cc="http://creativecommons.org/ns#"
   xmlns:rdf="http://www.w3.org/1999/02/22-rdf-syntax-ns#"
   xmlns:svg="http://www.w3.org/2000/svg"
   xmlns="http://www.w3.org/2000/svg"
   viewBox="0 0 272.07401 113.5296"
   height="113.5296"
   width="272.07401"
   xml:space="preserve"
   id="svg2"
   version="1.1"><metadata
     id="metadata8"><rdf:RDF><cc:Work
         rdf:about=""><dc:format>image/svg+xml</dc:format><dc:type
           rdf:resource="http://purl.org/dc/dcmitype/StillImage" /></cc:Work></rdf:RDF></metadata><defs
     id="defs6"><clipPath
       id="clipPath14"
       clipPathUnits="userSpaceOnUse"><path
         id="path12"
         d="M -1,-1 H 203.0555 V 84.1472 H -1 Z" /></clipPath></defs><g
     clip-path="url(#clipPath14)"
     transform="matrix(1.3333333,0,0,-1.3333333,1.3333333,112.19627)"
     id="g10"><g
       transform="matrix(1.3333333,0,0,-1.3333333,1.3333333,112.19627)"
       id="g16"><path
         id="path18"
         style="fill:#004357;fill-opacity:1;fill-rule:evenodd;stroke:none"
         d="M 198.6469,18.4 H 62.6454 c 2.4145,-3.5618 2.1044,-7.0481 1.048,-10.7082 h 134.9535 c 1.8748,0 3.4086,2.4089 3.4086,5.3541 v 0 c 0,2.9449 -1.5344,5.3541 -3.4086,5.3541 z m -178.0098,0 H 9.292 c -1.8746,0 -3.4084,-2.4092 -3.4084,-5.3541 v 0 c 0,-2.9452 1.5335,-5.3541 3.4084,-5.3541 h 20.6081 c -2.9917,2.8528 -7.5183,7.2593 -9.263,10.7082" /><path
         id="path20"
         style="fill:#f9f9fa;fill-opacity:1;fill-rule:evenodd;stroke:none"
         d="m 98.7386,37.8425 c 0.5012,0.1432 1.0381,0.358 1.611,0.6086 0.7517,0.3938 1.396,1.1455 1.7901,1.8255 0.0714,0.1435 0.1071,0.2509 0.1785,0.394 -0.3937,-0.1788 -0.8589,-0.4654 -1.3957,-0.8591 -0.7161,-0.5372 -1.5395,-1.2172 -2.1839,-1.969 z m -0.9754,-1.6299 c -0.0915,-0.0975 -0.1902,-0.1996 -0.2959,-0.3061 -1.9392,-4.7662 7.3783,-0.4598 8.4668,1.5063 0.1072,0.2149 0.4652,0.4657 0.7875,0.1791 0.2866,-0.2865 0.2866,-0.4294 0.1791,-0.6443 -1.0023,-1.7543 -6.5868,-5.6205 -9.057,-4.2242 -0.7764,0.434 -1.3634,1.1736 -1.6123,2.0146 -2.5628,-2.3105 -6.5602,-5.4028 -8.0175,-6.1313 -1.2886,-0.6803 -3.4365,-1.3247 -4.3316,0.1071 -0.7214,1.0151 0.4124,3.9779 2.2311,7.4418 -0.7625,-0.161 -1.4301,-0.1088 -2.052,0.1117 -0.1431,-0.6083 -0.358,-1.2529 -0.6803,-1.7901 -0.4294,-0.8232 -0.9306,-1.5392 -1.4678,-2.0043 -0.4294,-0.3581 -0.8232,-0.6446 -1.2169,-0.7518 -0.4654,-0.1431 -0.9306,-0.1074 -1.3963,0.1429 -0.2503,0.1434 -0.5012,0.3223 -0.7161,0.5729 -0.0714,0.0717 -0.1428,0.1431 -0.2146,0.2148 -0.5728,0.8235 -0.5371,2.1478 -0.1434,3.401 0.394,1.1812 1.0741,2.3624 1.8615,3.0784 0.1077,0.0718 0.2152,0.1792 0.3223,0.2509 0.1435,0.1072 0.5015,-0.036 0.7875,-0.358 0.2866,-0.3223 0.358,-0.6803 0.2149,-0.8235 -0.1072,-0.0717 -0.2149,-0.1431 -0.2863,-0.2148 -0.7518,-0.6803 -1.3601,-1.7898 -1.7541,-2.8996 -0.2863,-0.9306 -0.4298,-1.7901 -0.2506,-2.1481 0.1789,-0.0714 0.3937,-0.0714 0.6803,0 0.3223,0.1077 0.716,0.3223 1.0741,0.6803 0.5008,0.4295 0.9663,1.0738 1.3957,1.8973 0.2506,0.4654 0.4298,0.9666 0.5729,1.4677 -0.6443,0.5372 -1.1097,1.1812 -1.396,1.8258 -0.2866,0.6443 -0.3938,1.2887 -0.3581,1.7541 0.0715,0.5012 0.2863,0.8592 0.7161,0.9306 0.322,0.036 0.6086,-0.0357 0.8949,-0.1788 0.4654,-0.2506 0.8592,-0.6804 1.1097,-1.2172 0.2146,-0.3938 0.3221,-0.8235 0.3938,-1.2887 0.0717,-0.4654 0.0717,-1.0026 0,-1.5395 0.6514,-0.1182 1.5718,-0.2367 2.5795,0.1307 3.5521,6.4423 8.8917,13.9655 9.0907,14.0097 1.1455,1.6469 2.649,2.7567 3.7587,3.079 0.3938,0.1071 0.7875,0.1428 1.1455,0 0.6086,-0.1792 1.0384,-0.5732 1.2172,-1.1458 0.1435,-0.5369 0,-1.3961 -0.6443,-2.6135 -2.2912,-4.582 -11.8491,-11.8491 -11.8851,-11.8848 -0.036,0 -0.0717,-0.0358 -0.1431,0 -2.6133,-4.5465 -4.4748,-8.6633 -3.9737,-9.7371 0.3221,-0.4654 1.8616,0.1072 2.2193,0.2863 1.5829,0.8329 6.1577,4.3356 8.5493,6.5673 0.0102,0.0902 0.0241,0.1803 0.0425,0.2702 0.1789,0.8952 0.716,1.8258 1.4318,2.649 0.716,0.7877 1.5395,1.5395 2.3272,2.1121 1.0381,0.716 2.0044,1.1454 2.3981,1.074 0.3223,-0.0714 0.6089,-0.2506 0.8595,-0.5369 0.358,-0.394 0.5012,-0.8592 0.4294,-1.2889 -0.0357,-0.3223 -0.1791,-0.6443 -0.358,-1.0023 -0.3937,-0.7518 -1.1094,-1.5392 -1.9689,-1.969 -1.4227,-0.7265 -2.9991,-0.9921 -3.517,-1.057 z m -14.7401,1.6299 c 0.0717,0.5726 0.0717,1.1455 0,1.6109 -0.0357,0.3223 -0.1072,0.6086 -0.1789,0.7875 -0.0357,0 0.0357,0 0.0357,0 -0.0357,0.0357 -0.1428,0.0357 -0.2505,0 -0.2146,0 -0.3223,-0.2149 -0.3581,-0.5369 -0.0357,-0.322 0.0358,-0.716 0.2149,-1.1097 0.1074,-0.2863 0.2866,-0.5369 0.5369,-0.7518 z m 13.854,12.8157 c 0,0 -2.8995,-4.2242 -5.7994,-8.9495 2.9713,2.4701 7.7327,6.6943 9.2719,9.737 0.5369,1.074 0.716,1.8258 0.6086,2.2912 -0.1075,0 -0.2863,-0.0357 -0.4655,-0.0717 -1.0383,-0.322 -2.4701,-1.3958 -3.6156,-3.007 z M 13.6009,35.5637 c 0.633,1.2955 0.8969,3.1519 1.4295,4.6004 0.2628,0.8317 0.2764,1.4258 0.5395,2.2575 0.7687,2.1164 1.4034,5.4607 1.9627,7.073 0.4989,1.4995 1.2203,3.0725 2.1699,4.5034 3.0447,4.2029 9.3659,7.1294 14.762,4.6911 6.5667,-2.9821 4.316,-7.9779 0.396,-12.9042 C 30.8463,40.7965 25.2357,33.5112 30.562,27.0774 33.2589,23.8096 36.5159,23.1789 39.5311,23.1197 46.3958,22.9669 53.9668,22.7682 57.253,14.9156 58.8796,11.0149 58.9989,8.1677 56.3658,5.1871 53.5439,2.0823 49.2763,1.169 46.2212,1.4941 38.4012,2.4797 26.405,19.4346 21.4756,25.4718 c -2.6632,3.2171 -5.7708,6.287 -7.8747,10.0919 z M 93.763,51.768 c -0.1432,-0.1431 -0.5012,0 -0.7878,0.3223 -0.2863,0.2863 -0.3937,0.68 -0.2505,0.8232 0.1434,0.1077 0.2505,0.358 0.2865,0.6086 0.0715,0.4297 0,0.9309 -0.3223,1.432 -0.2865,0.5012 -0.8234,1.0024 -1.6466,1.5035 -5.9068,3.3293 -17.5414,0.4295 -23.305,-2.2552 -2.7564,-1.2889 -9.5222,-5.1191 -7.6607,-9.057 0.8592,-1.8615 3.8662,-2.8998 6.8018,-3.9019 1.6826,-0.6089 3.365,-1.1815 4.761,-1.9692 10.1308,-5.6917 -2.5194,-18.6639 -12.458,-18.114 -6.4405,0.3564 -10.9632,4.0652 -13.227,6.7819 -3.585,3.9986 -4.0787,10.6946 -3.8134,15.624 0.301,7.9515 -0.2571,8.3878 -4.0754,15.8162 -4.4572,8.3968 -1.8737,6.7366 -3.1164,10.671 -0.9541,2.8817 -5.5947,7.8659 -7.9158,9.3337 -1.4397,0.9519 -3.2833,1.4913 -5.034,0.0436 -3.5351,-2.844 -0.0578,-6.4746 1.2455,-10.296 0.6316,-1.7776 1.0205,-4.0076 3.0932,-4.6885 2.4704,0.9715 2.2014,1.3791 4.7384,1.2243 3.2777,-0.252 5.4887,-5.449 -3.5955,-2.9571 -0.8747,0.3005 -0.4305,0.4476 -1.6083,0.1823 -4.4896,-0.9868 -4.3311,5.3351 -7.4172,9.8087 -2.7569,4.1791 -5.398,-0.6352 -5.3915,-0.8501 0.396,-1.421 2.4208,-3.6694 3.4226,-4.9836 2.2581,-4.0079 1.3266,-4.8112 4.6168,-4.1621 0.659,-0.5885 0.6658,-0.8042 0.369,-1.5849 -0.3245,-1.2891 -2.7209,-1.144 -3.6238,-1.0343 -1.0091,0.5048 -0.7058,1.0703 -0.9881,1.9083 -0.2756,0.6225 -0.9349,1.2118 -1.4324,1.7611 -1.2912,1.3425 -3.416,4.7685 -4.5669,4.6676 -2.1135,-0.0777 -2.4644,-2.2111 -0.7098,-5.0763 1.0568,0.0388 2.3216,-0.4434 3.3775,-1.429 1.8768,-1.6146 1.3785,-2.0897 2.1045,-3.8052 0.7526,-1.5511 1.9366,-2.5257 1.5993,-4.0649 -0.2294,-0.8827 -1.5228,-2.6135 -2.7539,-2.1824 -1.6217,0.6126 -0.3016,2.5076 -0.1658,4.3526 C 11.592,52.9634 9.0825,54.3067 8.7661,54.1712 7.2578,53.1763 5.864,51.5985 5.648,50.2855 5.4924,49.0859 5.9822,46.7025 7.5365,46.192 c 0.1159,2.4902 -0.7991,3.0569 0.1851,5.4615 1.0513,2.3026 3.4072,2.8326 4.9544,1.5128 2.1724,-1.8581 1.6849,-6.8609 -0.1936,-8.3197 -1.1583,-0.9102 -1.8715,-0.6491 -2.7936,-0.892 0.6988,-1.8794 2.016,-5.1066 3.0918,-6.7374 1.1863,3.1232 3.1297,11.8658 4.1745,14.3833 5.095,11.5531 19.1744,11.332 22.5349,4.187 2.8097,-5.8997 -6.1381,-12.0217 -8.6995,-18.3926 -1.2268,-2.8573 -2.1039,-6.654 1.2727,-10.1321 2.9124,-2.979 6.0821,-2.8627 9.4474,-2.8375 1.7968,-0.0581 3.3108,-0.3025 5.0133,-0.4229 1.4471,-0.1426 3.3245,-0.7325 4.8181,-1.3564 3.6399,-1.6217 5.9938,-4.1647 7.5055,-8.5071 C 62.2202,4.5147 53.159,0 46.8394,0.1466 38.6558,0.4533 26.8747,16.6723 21.2726,23.7288 c -2.6025,3.3302 -5.6092,6.2473 -7.9963,9.8657 -0.3702,-0.4637 -0.1751,-0.5544 -0.3234,-0.9448 -0.5057,-1.2843 -0.9091,-0.6729 -0.9091,-0.6729 -0.9754,0.4535 -0.0592,1.9358 0.1429,2.6543 0.2231,1.0979 -0.5102,2.0041 -1.1554,3.1876 -0.5111,0.9794 -2.6884,6.126 -2.8902,6.4315 C 8.1074,44.3013 0,48.3885 7.4341,54.7554 c -1.5267,1.6991 -2.859,2.2831 -2.4874,4.7957 0.385,2.0823 1.4488,2.9304 3.7917,3.8908 -1.4457,2.1915 -1.6325,5.1404 1.2551,6.0942 2.7599,0.9431 3.6936,-2.3176 5.3686,-3.6263 l 0.3903,-0.1815 c -0.9011,1.1608 -3.5039,4.491 -3.8262,5.5948 -0.4635,1.523 1.3686,3.4625 3.2063,4.1629 1.9318,0.7626 3.4452,-0.5065 4.5949,-2.4545 1.2104,-1.8346 1.6535,-3.7366 2.6079,-5.5939 0.015,2.6431 -4.1885,6.965 -2.8604,10.6937 1.0652,2.8968 4.943,5.0159 9.0799,1.8204 2.2334,-1.7447 6.5781,-6.4853 7.5319,-9.367 0.6719,-2.0438 0.1999,-3.3792 0.6095,-5.2302 1.0806,-4.919 5.7421,-8.4997 6.7201,-16.3392 0.6236,-5.2098 -1.6416,-16.0104 5.3487,-21.8019 2.3459,-1.944 6.7595,-4.2842 9.5873,-4.2103 8.6984,0.2282 20.9223,11.0268 13.4303,15.2332 -1.2427,0.6978 -2.8636,1.2529 -4.5105,1.8257 -3.401,1.1815 -6.8732,2.3627 -8.2335,5.2623 -2.1838,4.6899 4.0807,8.7707 7.5175,10.3816 6.1574,2.8638 18.0425,5.3699 24.3428,1.7901 1.2889,-0.7518 2.1838,-1.647 2.6849,-2.5419 0.5372,-0.8591 0.6801,-1.6826 0.6086,-2.2909 C 94.121,52.2694 93.9779,51.9471 93.763,51.768 Z M 9.2254,45.4776 C 8.6406,46.7742 8.4467,48.9135 8.5416,50 c 0.1894,1.1489 1.5299,3.4231 3.2318,2.2782 1.8029,-1.2971 1.5299,-8.0606 -2.548,-6.8006 z m 18.9229,18.4805 c 1.4539,0.6664 3.6615,0.8062 4.4683,-0.417 -0.9695,-0.786 -3.6879,0.0539 -4.4683,0.417 z M 8.5586,55.7167 c -1.0159,0.7194 -2.0922,1.326 -2.4278,2.8598 -0.1273,1.0131 0.3175,2.1844 1.5429,2.9929 1.9187,1.1925 3.7502,0.36 5.0417,-0.9825 3.0455,-4.1726 -2.1133,-4.9482 -4.1568,-4.8702" /><path
         id="path22"
         style="fill:#f9f9fa;fill-opacity:1;fill-rule:evenodd;stroke:none"
         d="m 152.2043,53.079 c -0.1397,-0.1397 -0.489,0 -0.7687,0.3147 -0.2795,0.2795 -0.3844,0.6638 -0.2447,0.8036 0.1401,0.1049 0.2447,0.3492 0.2795,0.5941 0.07,0.4193 0,0.9085 -0.3143,1.3978 -0.2798,0.489 -0.8037,0.9782 -1.6073,1.4675 -5.7657,3.2496 -17.1224,0.4192 -22.7483,-2.2014 -2.6904,-1.258 -9.2945,-4.9969 -7.4775,-8.8407 0.8385,-1.817 3.7738,-2.8304 6.639,-3.8086 1.6424,-0.5942 3.2845,-1.1531 4.6474,-1.9222 9.889,-5.5559 -2.446,-17.5062 -12.16,-17.6811 -3.5295,-0.1746 -7.6527,1.5027 -7.7225,5.0318 -0.0348,1.6075 1.2229,3.704 4.3331,6.1849 0.1394,0.14 0.4889,-0.0349 0.7684,-0.3492 0.2798,-0.2795 0.3844,-0.6639 0.2098,-0.7691 -3.005,-2.4108 -4.193,-4.3676 -4.1581,-5.8005 0.0348,-2.2363 3.9135,-2.4809 5.451,-2.4109 8.4912,0.2095 20.7212,10.6577 13.4181,14.781 -1.2229,0.6636 -2.7953,1.2229 -4.4028,1.7822 -3.3197,1.1531 -6.709,2.3062 -8.0368,5.1366 -2.1316,4.5774 3.9835,8.5609 7.3378,10.1333 6.0103,2.7955 17.6113,5.2415 23.7614,1.7473 1.258,-0.7339 2.1316,-1.6075 2.6206,-2.4809 0.5244,-0.8388 0.6642,-1.6427 0.5942,-2.2365 -0.0698,-0.3844 -0.2095,-0.6988 -0.4193,-0.8737 z m 44.7268,-14.9904 c -0.0341,-0.034 -0.0845,-0.0723 -0.1457,-0.1066 -0.3368,-0.349 -0.7705,-0.7744 -1.2501,-1.1855 0.0785,-0.0439 0.1607,-0.1023 0.2429,-0.1754 0.3144,-0.2798 0.4541,-0.6639 0.3844,-0.8388 0,-0.0349 -0.4893,-0.9085 -0.4193,-0.9434 0.1395,-0.07 0.4193,-0.07 0.6988,0 0.2446,0.0349 0.489,0.1398 0.6987,0.3147 0.2098,0.1394 0.4195,0.3841 0.5241,0.6287 0.2447,0.4893 0.3496,1.118 0.1749,1.9219 0,0.4544 -0.3146,0.4892 0.5242,2.0265 z m -0.7858,0.4141 c 0.1653,0.2599 0.4584,0.5162 0.5414,0.599 l 2.6206,3.1799 c 0.4544,0.4895 0.8037,0.7687 0.8037,0.7687 0.1397,0.1401 0.4892,0 0.7339,-0.3143 0.2794,-0.2795 0.4192,-0.6639 0.2794,-0.8039 l -0.8384,-0.8037 c -0.7339,-0.8384 -1.7122,-2.3408 -1.3278,-3.9483 0.2095,-1.0134 0.1046,-1.817 -0.1749,-2.4112 -0.1746,-0.3143 -0.4192,-0.559 -0.6641,-0.7687 -0.2444,-0.1747 -0.5239,-0.3147 -0.8037,-0.3844 -0.4889,-0.1049 -0.9782,-0.0349 -1.3626,0.1749 -1.3374,0.6803 -1.2883,1.7861 -1.1117,2.4497 -1.0537,-0.7795 -2.198,-1.3164 -2.9767,-0.8076 -1.5724,1.0134 -0.8036,2.5509 -0.1397,3.9138 0.1397,0.2795 0.2797,0.559 0.3843,0.8385 -1.9919,-1.0483 -6.6393,-5.4862 -6.7787,-5.6257 -0.1049,-0.14 -0.4196,-0.0351 -0.6991,0.2095 -0.2795,0.3144 -0.4541,0.6639 -0.3495,0.8388 l 1.3235,2.3675 c -0.9626,-0.307 -1.7696,-0.2897 -2.5115,-0.0264 -0.1394,-0.5938 -0.3492,-1.2231 -0.6638,-1.7473 -0.4193,-0.8036 -0.9085,-1.5026 -1.4327,-1.9567 -0.4192,-0.3495 -0.8036,-0.629 -1.188,-0.7339 -0.4541,-0.1395 -0.9085,-0.1046 -1.3629,0.1397 -0.2443,0.1401 -0.4889,0.3147 -0.6987,0.5593 -0.07,0.0698 -0.1398,0.1398 -0.2095,0.2095 -0.4513,0.6489 -0.5159,1.6157 -0.3217,2.6076 -1.8448,-1.6523 -4.6415,-3.7185 -5.6189,-2.0135 -0.3911,0.6991 -0.3129,1.5996 0.0383,2.5402 -2.4106,-2.1073 -6.876,-5.5409 -8.1099,-3.274 -0.2047,0.3812 -0.085,1.1236 0.2693,2.1067 -0.4672,-0.4235 -0.9578,-0.7864 -1.4576,-1.0233 -1.2229,-0.5942 -2.7604,-0.3147 -2.9701,1.188 -2.7511,-2.3619 -5.1035,-2.492 -4.9859,-0.3028 -2.5047,-2.2292 -6.2144,-5.0876 -7.5937,-5.7773 -1.2578,-0.6639 -3.3545,-1.2929 -4.2282,0.1049 -0.7041,0.9907 0.4028,3.8826 2.1779,7.2638 -0.7441,-0.1573 -1.3958,-0.1063 -2.003,0.1091 -0.1397,-0.5938 -0.3495,-1.2231 -0.6639,-1.7473 -0.4195,-0.8036 -0.9085,-1.5026 -1.4329,-1.9567 -0.4192,-0.3495 -0.8036,-0.629 -1.188,-0.7339 -0.4541,-0.1395 -0.9082,-0.1046 -1.3626,0.1397 -0.2446,0.1401 -0.4892,0.3147 -0.699,0.5593 -0.0697,0.0698 -0.1398,0.1398 -0.2095,0.2095 -0.5593,0.8039 -0.5244,2.0965 -0.14,3.3197 0.3844,1.1531 1.0485,2.3062 1.817,3.005 0.1052,0.07 0.2097,0.1749 0.3146,0.2449 0.1401,0.1046 0.4893,-0.0349 0.7688,-0.3495 0.2795,-0.3147 0.3495,-0.6639 0.2098,-0.8037 -0.1049,-0.07 -0.2098,-0.14 -0.2795,-0.2097 -0.7339,-0.6639 -1.3278,-1.7473 -1.7125,-2.8304 -0.2792,-0.9085 -0.4192,-1.7473 -0.2443,-2.0968 0.1746,-0.0697 0.3844,-0.0697 0.6639,0 0.3146,0.1052 0.699,0.3146 1.0482,0.6642 0.4893,0.4192 0.9434,1.0482 1.3626,1.8518 0.2447,0.4544 0.4196,0.9437 0.5593,1.4327 -0.629,0.5244 -1.0834,1.1531 -1.3629,1.7821 -0.2795,0.629 -0.3844,1.258 -0.3495,1.7121 0.07,0.4893 0.2798,0.8388 0.699,0.9085 0.3144,0.0352 0.5942,-0.0348 0.8737,-0.1746 0.4541,-0.2446 0.8385,-0.6639 1.0834,-1.188 0.2094,-0.3844 0.314,-0.8039 0.3841,-1.258 0.07,-0.4541 0.07,-0.9785 0,-1.5026 0.6358,-0.1154 1.5344,-0.2311 2.518,0.1275 3.467,6.2887 8.6791,13.6318 8.8733,13.6749 1.1182,1.6075 2.5857,2.6909 3.6691,3.0053 0.3844,0.1049 0.7688,0.1398 1.118,0 0.5942,-0.1749 1.0134,-0.559 1.188,-1.118 0.1401,-0.5244 0,-1.3629 -0.6287,-2.5512 -2.2365,-4.4725 -11.5662,-11.5662 -11.6014,-11.601 -0.0348,0 -0.0697,-0.0349 -0.1397,0 -2.5506,-4.4377 -4.3676,-8.4561 -3.8787,-9.5043 0.3147,-0.4544 1.8171,0.1046 2.1666,0.2795 1.6132,0.849 6.4117,4.5397 8.6422,6.692 0.0596,0.1519 0.125,0.3087 0.1985,0.4714 0.629,1.3975 1.7821,2.9001 2.6906,3.8784 0.1398,0.14 0.4893,0 0.7685,-0.2792 0.2798,-0.3147 0.3846,-0.6642 0.2798,-0.8388 -2.6558,-3.0402 -2.8656,-5.1367 -2.6207,-5.3464 0.4193,-0.3495 3.1099,1.3629 4.9969,4.5428 l 0.1046,0.1394 c 0.1401,0.1401 0.4893,0.0349 0.7688,-0.2792 0.2795,-0.2798 0.4192,-0.6639 0.2795,-0.8039 0,0 -0.0697,-0.1049 -0.2446,-0.2443 -0.4541,-0.5593 -3.0748,-4.2633 -0.4541,-3.0053 1.0434,0.5082 2.2302,1.3856 3.1371,2.302 0.5779,1.1679 1.3161,2.4843 2.1393,3.8477 -0.0349,0 0.2097,0.3844 0.2097,0.3844 0.07,2.6558 -8.8755,2.3066 -8.8755,2.3066 -0.2447,0 -0.629,0.2795 -0.8037,0.629 -0.2097,0.3143 -0.1749,0.5938 0.0698,0.5938 h 11.8108 c 2.9353,4.5777 5.8706,8.6658 5.9054,8.7007 0.1046,0.14 0.4541,0.0703 0.7336,-0.2443 0.2798,-0.2795 0.4196,-0.6639 0.3147,-0.8037 0,-0.0351 -2.5509,-3.5643 -5.2764,-7.6527 h 6.8618 l 0.0918,0.1049 c 0.114,0.1423 0.3439,0.076 0.5953,-0.1049 h 1.3615 c 0.2446,0 0.629,-0.2795 0.8036,-0.5938 0.2098,-0.3495 0.1749,-0.629 -0.0697,-0.629 h -1.8564 l -1.7428,-1.9919 c -0.1397,-0.1746 -0.4892,-0.0349 -0.7687,0.2446 -0.2795,0.3146 -0.4193,0.6639 -0.2795,0.8385 l 0.7951,0.9088 H 170.13 c -0.7338,-1.1183 -1.4677,-2.2714 -2.1665,-3.3897 v -0.0349 c 0,-0.1397 -0.07,-0.2094 -0.1397,-0.2094 -2.1317,-3.4597 -3.2845,-5.4514 -2.9001,-6.1501 0.6287,-1.1883 7.7221,4.4725 7.7221,4.5074 0.068,0.0513 0.1525,0.0938 0.2534,0.0884 0.6588,0.9329 1.3896,1.751 1.9131,2.1833 0.1749,0.1394 0.5244,0 0.8036,-0.3147 0.2795,-0.3143 0.3847,-0.6639 0.2098,-0.8039 -0.7688,-0.6636 -2.0268,-2.1665 -2.7955,-3.634 -0.489,-0.9782 -0.4541,-1.5375 -0.1046,-1.7121 1.1304,-0.1653 3.7837,2.1489 4.8526,3.1501 0.3804,0.8082 0.881,1.5511 1.4369,2.0563 0.1049,0.07 0.2098,0.1749 0.3146,0.2449 0.1398,0.1046 0.4893,-0.0349 0.7685,-0.3495 0.2798,-0.3147 0.3495,-0.6639 0.2098,-0.8037 -0.1046,-0.07 -0.2098,-0.14 -0.2795,-0.2097 -0.7339,-0.6639 -1.3278,-1.7473 -1.7122,-2.8304 -0.2794,-0.9085 -0.4195,-1.7473 -0.2446,-2.0968 0.1746,-0.0697 0.3844,-0.0697 0.6642,0 0.3143,0.1052 0.6987,0.3146 1.0482,0.6642 0.489,0.4192 0.9434,1.0482 1.3626,1.8518 0.2447,0.4544 0.4196,0.9437 0.559,1.4327 -0.629,0.5244 -1.0831,1.1531 -1.3626,1.7821 -0.2798,0.629 -0.3844,1.258 -0.3495,1.7121 0.0697,0.4893 0.2795,0.8388 0.6987,0.9085 0.3147,0.0352 0.5942,-0.0348 0.874,-0.1746 0.4541,-0.2446 0.8385,-0.6639 1.0831,-1.188 0.2095,-0.3844 0.3143,-0.8039 0.3844,-1.258 0.0697,-0.4541 0.0697,-0.9785 0,-1.5026 0.7667,-0.1392 1.9159,-0.2787 3.1351,0.4141 l 1.0579,1.8921 c 0.1049,0.1749 0.4541,0.1049 0.7339,-0.1746 0.3143,-0.2795 0.4541,-0.6639 0.3492,-0.8385 l -0.8736,-1.5726 c 1.887,1.5726 3.9486,3.1101 4.7174,2.9004 h 0.07 c 1.0482,-0.3147 1.2229,-0.9783 0.9782,-1.8522 -0.1049,-0.3844 -0.3495,-0.8385 -0.5938,-1.3629 -0.4544,-0.9082 -0.9786,-1.9216 -0.9786,-1.9216 0.8428,-0.553 3.1938,1.1962 4.3158,2.0914 z m -14.065,0.9836 c 0.0703,0.559 0.0703,1.1183 0,1.5724 -0.0348,0.3147 -0.1046,0.5942 -0.1746,0.7688 -0.0348,0 0.0352,0 0.0352,0 -0.0352,0.0348 -0.1398,0.0348 -0.2449,0 -0.2095,0 -0.3144,-0.2098 -0.3493,-0.5242 -0.0351,-0.3143 0.0349,-0.6987 0.2098,-1.0831 0.1046,-0.2798 0.2795,-0.5244 0.5238,-0.7339 z m -14.6409,3.8435 c 0.3495,0.5593 0.699,1.1183 1.0483,1.6776 L 164.12,45.182 c 1.048,-0.4193 2.7601,-1.1183 3.3194,-1.8522 z m -12.1952,8.6661 c 0,0 -2.8304,-4.1233 -5.6608,-8.7358 2.9004,2.4111 7.5478,6.5344 9.0502,9.5046 0.5241,1.0482 0.699,1.7818 0.5941,2.2365 -0.1049,0 -0.2795,-0.0352 -0.4544,-0.0703 -1.0134,-0.3141 -2.4108,-1.3626 -3.5291,-2.935 z m -13.523,-12.5096 c 0.07,0.559 0.07,1.1183 0,1.5724 -0.0348,0.3147 -0.1049,0.5942 -0.1746,0.7688 -0.0349,0 0.0349,0 0.0349,0 -0.0349,0.0348 -0.1398,0.0348 -0.2446,0 -0.2095,0 -0.3147,-0.2098 -0.3496,-0.5242 -0.0348,-0.3143 0.0349,-0.6987 0.2098,-1.0831 0.1049,-0.2798 0.2798,-0.5244 0.5241,-0.7339" /><path
         id="path24"
         style="fill:#ffffff;fill-opacity:1;fill-rule:nonzero;stroke:none"
         d="m 80.7299,12.2315 c -0.1171,0 -0.2342,0.0017 -0.3476,0.0054 -0.1151,0.0037 -0.2214,0.011 -0.3217,0.0218 V 9.4552 h -1.317 v 7.1655 h 2.0704 c 0.3456,0 0.6492,-0.0148 0.9088,-0.046 0.258,-0.0292 0.4901,-0.0748 0.6931,-0.1352 0.4901,-0.1499 0.8668,-0.3895 1.1322,-0.7188 0.265,-0.3272 0.3968,-0.7441 0.3968,-1.2527 0,-0.3455 -0.0714,-0.6565 -0.214,-0.9326 -0.1426,-0.278 -0.3529,-0.5122 -0.6273,-0.7041 -0.2744,-0.1939 -0.6109,-0.3421 -1.0077,-0.4445 -0.3969,-0.1043 -0.8521,-0.1553 -1.366,-0.1553 z m -0.6693,1.1302 c 0.0748,-0.0111 0.1701,-0.0202 0.2852,-0.0258 0.117,-0.0054 0.2378,-0.0071 0.3619,-0.0071 0.3532,0 0.6495,0.0292 0.8873,0.0859 0.2395,0.0567 0.4314,0.1352 0.5777,0.2378 0.1463,0.1023 0.2506,0.2248 0.3146,0.3694 0.0641,0.1442 0.097,0.3016 0.097,0.4736 0,0.2104 -0.0476,0.3932 -0.1446,0.5468 -0.0969,0.1537 -0.2633,0.2724 -0.5028,0.3583 -0.1245,0.0423 -0.2781,0.0732 -0.4627,0.0933 -0.1828,0.0201 -0.4079,0.0295 -0.6749,0.0295 h -0.7387 z m 16.236,-0.3184 c 0,0.4371 -0.053,0.8176 -0.161,1.145 -0.106,0.3274 -0.2543,0.5998 -0.4442,0.8175 -0.1885,0.2177 -0.4136,0.3804 -0.6732,0.4881 -0.2597,0.108 -0.5448,0.161 -0.8558,0.161 -0.311,0 -0.5961,-0.053 -0.8558,-0.161 -0.2599,-0.1077 -0.4847,-0.2704 -0.6732,-0.4881 -0.1902,-0.2177 -0.3382,-0.4901 -0.4442,-0.8175 -0.108,-0.3274 -0.161,-0.7079 -0.161,-1.145 0,-0.4351 0.053,-0.8175 0.161,-1.1449 0.106,-0.3271 0.254,-0.5978 0.4442,-0.8155 0.1885,-0.2157 0.4133,-0.3787 0.6732,-0.4884 0.2597,-0.1077 0.5448,-0.1627 0.8558,-0.1627 0.311,0 0.5961,0.055 0.8558,0.1627 0.2596,0.1097 0.4847,0.2727 0.6732,0.4884 0.1899,0.2177 0.3382,0.4884 0.4442,0.8155 0.108,0.3274 0.161,0.7098 0.161,1.1449 z m 1.3606,0 c 0,-0.5468 -0.0768,-1.0479 -0.2321,-1.5032 C 97.2694,11.0846 97.041,10.6914 96.7428,10.364 96.4449,10.0349 96.0789,9.779 95.6438,9.5961 95.2104,9.415 94.7166,9.3234 94.1624,9.3234 c -0.5542,0 -1.048,0.0916 -1.4814,0.2727 -0.4351,0.1829 -0.8011,0.4388 -1.099,0.7679 -0.2982,0.3274 -0.525,0.7206 -0.6803,1.1761 -0.1556,0.4553 -0.2341,0.9564 -0.2341,1.5032 0,0.5468 0.0785,1.048 0.2341,1.5033 0.1553,0.4555 0.3821,0.8486 0.6803,1.176 0.2979,0.3291 0.6639,0.5851 1.099,0.7682 0.4334,0.1809 0.9272,0.2724 1.4814,0.2724 0.5542,0 1.048,-0.0915 1.4814,-0.2724 0.4351,-0.1831 0.8011,-0.4391 1.099,-0.7682 0.2982,-0.3274 0.5266,-0.7205 0.6823,-1.176 0.1553,-0.4553 0.2321,-0.9565 0.2321,-1.5033 z m 7.037,-3.5881 v 7.1655 h 1.8967 c 0.1681,0 0.3382,-0.0057 0.5119,-0.0165 0.1738,-0.011 0.3422,-0.0258 0.5066,-0.0476 0.1647,-0.0221 0.322,-0.0476 0.4756,-0.0788 0.1537,-0.0292 0.2963,-0.0658 0.4244,-0.1097 0.3821,-0.1208 0.7186,-0.2852 1.0131,-0.4918 0.2925,-0.2067 0.5377,-0.4519 0.735,-0.7333 0.1996,-0.2818 0.3495,-0.5981 0.4519,-0.9457 0.1006,-0.3475 0.1516,-0.7259 0.1516,-1.1319 0,-0.386 -0.0419,-0.748 -0.1278,-1.0845 -0.0859,-0.3384 -0.216,-0.6457 -0.3915,-0.9235 -0.1755,-0.2798 -0.3949,-0.525 -0.6619,-0.737 -0.267,-0.2123 -0.5817,-0.3861 -0.9456,-0.5233 -0.3036,-0.1134 -0.6492,-0.1993 -1.0333,-0.256 -0.3858,-0.0567 -0.8212,-0.0859 -1.3022,-0.0859 z m 1.8581,1.0973 c 0.7665,0 1.3663,0.1061 1.7978,0.3164 0.3824,0.1885 0.6712,0.4646 0.8668,0.8249 0.1959,0.3602 0.2945,0.8212 0.2945,1.3824 0,0.2928 -0.0328,0.5562 -0.0969,0.792 -0.0641,0.2359 -0.1573,0.4462 -0.2781,0.629 -0.1205,0.1848 -0.2687,0.3422 -0.4405,0.4737 -0.1738,0.1335 -0.3696,0.2415 -0.587,0.3274 -0.203,0.0785 -0.4298,0.1352 -0.6787,0.1721 -0.2505,0.0345 -0.5303,0.053 -0.8413,0.053 h -0.5777 v -4.9709 z m 16.6641,2.4908 c 0,0.4371 -0.053,0.8176 -0.161,1.145 -0.106,0.3274 -0.2543,0.5998 -0.4442,0.8175 -0.1885,0.2177 -0.4136,0.3804 -0.6732,0.4881 -0.2597,0.108 -0.5449,0.161 -0.8558,0.161 -0.311,0 -0.5962,-0.053 -0.8558,-0.161 -0.2599,-0.1077 -0.4847,-0.2704 -0.6732,-0.4881 -0.1902,-0.2177 -0.3382,-0.4901 -0.4442,-0.8175 -0.108,-0.3274 -0.161,-0.7079 -0.161,-1.145 0,-0.4351 0.053,-0.8175 0.161,-1.1449 0.106,-0.3271 0.254,-0.5978 0.4442,-0.8155 0.1885,-0.2157 0.4133,-0.3787 0.6732,-0.4884 0.2596,-0.1077 0.5448,-0.1627 0.8558,-0.1627 0.3109,0 0.5961,0.055 0.8558,0.1627 0.2596,0.1097 0.4847,0.2727 0.6732,0.4884 0.1899,0.2177 0.3382,0.4884 0.4442,0.8155 0.108,0.3274 0.161,0.7098 0.161,1.1449 z m 1.3606,0 c 0,-0.5468 -0.0768,-1.0479 -0.2321,-1.5032 -0.1557,-0.4555 -0.3841,-0.8487 -0.6823,-1.1761 -0.298,-0.3291 -0.6639,-0.585 -1.099,-0.7679 -0.4335,-0.1811 -0.9273,-0.2727 -1.4814,-0.2727 -0.5542,0 -1.048,0.0916 -1.4814,0.2727 -0.4351,0.1829 -0.8011,0.4388 -1.099,0.7679 -0.2982,0.3274 -0.525,0.7206 -0.6803,1.1761 -0.1556,0.4553 -0.2342,0.9564 -0.2342,1.5032 0,0.5468 0.0786,1.048 0.2342,1.5033 0.1553,0.4555 0.3821,0.8486 0.6803,1.176 0.2979,0.3291 0.6639,0.5851 1.099,0.7682 0.4334,0.1809 0.9272,0.2724 1.4814,0.2724 0.5541,0 1.0479,-0.0915 1.4814,-0.2724 0.4351,-0.1831 0.801,-0.4391 1.099,-0.7682 0.2982,-0.3274 0.5266,-0.7205 0.6823,-1.176 0.1553,-0.4553 0.2321,-0.9565 0.2321,-1.5033 z m 8.354,3.5774 v -6.0682 h 3.3539 V 9.4552 h -4.6709 v 7.1655 z m 15.1149,-3.5774 c 0,0.4371 -0.053,0.8176 -0.161,1.145 -0.106,0.3274 -0.2543,0.5998 -0.4442,0.8175 -0.1885,0.2177 -0.4136,0.3804 -0.6732,0.4881 -0.2597,0.108 -0.5449,0.161 -0.8558,0.161 -0.311,0 -0.5961,-0.053 -0.8558,-0.161 -0.2599,-0.1077 -0.4847,-0.2704 -0.6732,-0.4881 -0.1902,-0.2177 -0.3382,-0.4901 -0.4442,-0.8175 -0.108,-0.3274 -0.161,-0.7079 -0.161,-1.145 0,-0.4351 0.053,-0.8175 0.161,-1.1449 0.106,-0.3271 0.254,-0.5978 0.4442,-0.8155 0.1885,-0.2157 0.4133,-0.3787 0.6732,-0.4884 0.2597,-0.1077 0.5448,-0.1627 0.8558,-0.1627 0.3109,0 0.5961,0.055 0.8558,0.1627 0.2596,0.1097 0.4847,0.2727 0.6732,0.4884 0.1899,0.2177 0.3382,0.4884 0.4442,0.8155 0.108,0.3274 0.161,0.7098 0.161,1.1449 z m 1.3606,0 c 0,-0.5468 -0.0768,-1.0479 -0.2321,-1.5032 -0.1557,-0.4555 -0.3841,-0.8487 -0.6823,-1.1761 -0.298,-0.3291 -0.6639,-0.585 -1.099,-0.7679 -0.4334,-0.1811 -0.9272,-0.2727 -1.4814,-0.2727 -0.5542,0 -1.048,0.0916 -1.4814,0.2727 -0.4351,0.1829 -0.8011,0.4388 -1.099,0.7679 -0.2982,0.3274 -0.525,0.7206 -0.6803,1.1761 -0.1556,0.4553 -0.2341,0.9564 -0.2341,1.5032 0,0.5468 0.0785,1.048 0.2341,1.5033 0.1553,0.4555 0.3821,0.8486 0.6803,1.176 0.2979,0.3291 0.6639,0.5851 1.099,0.7682 0.4334,0.1809 0.9272,0.2724 1.4814,0.2724 0.5542,0 1.048,-0.0915 1.4814,-0.2724 0.4351,-0.1831 0.801,-0.4391 1.099,-0.7682 0.2982,-0.3274 0.5266,-0.7205 0.6823,-1.176 0.1553,-0.4553 0.2321,-0.9565 0.2321,-1.5033 z m 11.4922,-0.8447 h -1.6075 v 1.0973 h 2.9242 V 9.6783 c -0.108,-0.0402 -0.2432,-0.0805 -0.4096,-0.1244 -0.1664,-0.042 -0.3512,-0.0802 -0.5578,-0.1151 -0.205,-0.0349 -0.417,-0.0621 -0.6347,-0.0822 -0.2177,-0.0221 -0.4334,-0.0332 -0.6474,-0.0332 -0.6438,0 -1.205,0.0862 -1.6844,0.26 -0.4807,0.1737 -0.8796,0.4169 -1.1996,0.7313 -0.32,0.3147 -0.5596,0.6897 -0.7186,1.1231 -0.1593,0.4351 -0.2378,0.9142 -0.2378,1.4391 0,0.3714 0.0419,0.726 0.1261,1.0645 0.0842,0.3381 0.2084,0.6511 0.3714,0.9382 0.1627,0.2872 0.3619,0.5468 0.5941,0.779 0.2324,0.2321 0.4995,0.4317 0.7974,0.5961 0.2982,0.1627 0.6236,0.2891 0.9802,0.3767 0.3549,0.0879 0.737,0.1318 1.1432,0.1318 0.3603,0 0.7041,-0.0255 1.0296,-0.0768 0.3237,-0.0513 0.5907,-0.1153 0.7974,-0.1885 v -1.1063 c -0.2781,0.0858 -0.5596,0.1519 -0.8431,0.1955 -0.2834,0.046 -0.5706,0.0678 -0.8597,0.0678 -0.3895,0 -0.7535,-0.0584 -1.0936,-0.1738 -0.3402,-0.117 -0.6327,-0.2888 -0.8813,-0.5156 -0.2489,-0.2268 -0.4445,-0.5065 -0.5871,-0.8393 -0.1428,-0.3311 -0.214,-0.7169 -0.214,-1.1523 0.004,-0.8467 0.2248,-1.4831 0.6619,-1.9074 0.4391,-0.4224 1.059,-0.6347 1.8638,-0.6347 0.1499,0 0.3053,0.0073 0.4643,0.0238 0.161,0.0164 0.3019,0.0366 0.4226,0.0621 z m 8.5731,-2.7434 v 7.1655 h 1.317 V 9.4552 Z m 9.9947,1.0973 h 3.5258 V 9.4552 h -4.8428 v 7.1655 h 4.6491 v -1.0973 h -3.3321 v -1.8545 h 2.8619 v -1.0972 h -2.8619 z" /></g></g></svg>