<?xml version="1.0" standalone="no"?>
<!DOCTYPE svg PUBLIC "-//W3C//DTD SVG 20010904//EN"
 "http://www.w3.org/TR/2001/REC-SVG-20010904/DTD/svg10.dtd">
<svg version="1.0" xmlns="http://www.w3.org/2000/svg"
 width="1242.000000pt" height="504.000000pt" viewBox="0 0 1242.000000 504.000000"
 preserveAspectRatio="xMidYMid meet">

<g transform="translate(0.000000,504.000000) scale(0.100000,-0.100000)"
fill="#000000" stroke="none">
<path d="M0 2520 c0 -1673 3 -2520 10 -2520 7 0 10 847 10 2520 0 1673 -3
2520 -10 2520 -7 0 -10 -847 -10 -2520z"/>
<path d="M12400 2520 c0 -1673 3 -2520 10 -2520 7 0 10 847 10 2520 0 1673 -3
2520 -10 2520 -7 0 -10 -847 -10 -2520z"/>
<path d="M3000 4000 c-50 -26 -70 -67 -85 -178 -8 -53 -21 -124 -29 -157 -9
-32 -16 -75 -16 -95 -1 -27 -3 -31 -10 -19 -6 11 -3 56 10 135 11 66 20 139
20 164 0 62 -31 127 -64 136 -44 11 -111 -5 -137 -32 -22 -23 -23 -32 -22
-139 1 -63 -2 -117 -6 -120 -10 -6 -21 53 -21 113 0 56 -23 110 -52 121 -31
11 -94 -7 -121 -35 -12 -12 -27 -40 -33 -61 -11 -37 -12 -38 -50 -35 -28 2
-49 -3 -74 -20 -49 -33 -62 -63 -57 -130 l5 -56 -50 -12 c-54 -14 -101 -48
-123 -91 -18 -35 -19 -126 -1 -157 11 -20 10 -36 -6 -100 -10 -43 -21 -115
-24 -162 -6 -84 -7 -86 -51 -131 -47 -49 -54 -81 -19 -87 12 -3 26 5 37 19 10
13 20 21 23 19 3 -3 12 -113 21 -245 8 -131 18 -255 20 -275 3 -19 16 -125 30
-235 20 -167 31 -222 65 -325 79 -239 139 -327 255 -370 53 -19 72 -21 155
-16 126 8 164 20 216 68 65 60 104 145 104 228 0 176 -99 345 -286 487 -164
124 -203 181 -203 293 -1 77 32 143 103 207 76 67 130 95 256 131 203 59 298
120 321 206 33 124 -58 281 -197 337 -50 20 -76 24 -174 24 -176 0 -238 -28
-425 -189 -44 -38 -106 -94 -139 -125 l-58 -56 6 70 c3 39 12 90 19 114 l12
45 52 0 c93 2 168 86 160 183 l-4 51 49 4 c54 3 59 -2 23 -26 -35 -23 -47 -50
-35 -80 23 -62 122 -9 135 72 4 20 13 54 21 75 28 76 16 132 -42 197 -34 38
-37 44 -28 77 12 49 51 77 86 64 25 -9 26 -15 33 -98 3 -48 11 -103 16 -120 8
-24 7 -43 -2 -68 -21 -56 -6 -70 79 -72 77 -3 96 8 90 49 -2 19 -9 23 -41 24
-49 1 -63 14 -46 45 8 14 16 74 19 143 5 108 7 120 29 137 30 24 56 24 81 -1
25 -25 26 -84 5 -185 -8 -38 -18 -98 -21 -133 -6 -56 -4 -65 16 -87 12 -13 34
-26 48 -30 15 -4 50 -29 78 -56 29 -26 68 -56 88 -65 33 -16 36 -16 60 0 53
34 15 102 -81 146 -76 34 -78 36 -81 64 -2 15 4 59 13 99 9 40 23 110 30 156
16 94 40 131 86 131 30 0 77 -34 110 -81 30 -42 60 -180 60 -277 0 -73 -4 -91
-36 -162 -34 -76 -36 -87 -49 -262 -20 -268 -35 -303 -273 -622 -33 -46 -66
-100 -72 -122 -26 -94 -2 -282 44 -346 14 -18 32 -43 41 -56 9 -12 22 -39 29
-60 16 -47 48 -52 53 -8 5 43 -5 70 -43 116 -46 56 -75 150 -75 250 0 76 1 79
51 156 28 43 87 129 131 191 135 191 164 278 177 515 7 147 9 158 41 224 29
60 34 81 38 169 6 149 -37 312 -102 383 -48 54 -122 67 -186 32z m-572 -275
c4 -3 14 -32 23 -63 9 -31 19 -64 23 -74 7 -15 4 -15 -36 -1 -24 8 -60 13 -81
10 -29 -4 -39 -1 -47 13 -22 41 -4 126 29 133 19 4 80 -8 89 -18z m82 -85 c0
-13 -1 -13 -10 0 -5 8 -10 22 -10 30 0 13 1 13 10 0 5 -8 10 -22 10 -30z
m-216 -99 c3 -5 -10 -12 -29 -15 -47 -9 -88 -46 -118 -106 -28 -55 -37 -55
-37 3 0 64 70 117 167 126 6 1 14 -3 17 -8z m755 -102 c21 -20 29 -49 12 -49
-15 0 -90 64 -90 77 -1 16 49 -2 78 -28z m-745 15 c20 -51 -27 -124 -88 -140
-43 -10 -51 7 -28 60 35 79 99 123 116 80z m166 -13 c-12 -23 -29 -35 -37 -27
-7 7 26 46 39 46 5 0 4 -9 -2 -19z m389 -108 c42 -13 69 -31 111 -73 96 -95
106 -196 28 -266 -36 -34 -93 -59 -223 -99 -145 -45 -222 -86 -298 -159 -74
-70 -107 -141 -109 -228 -2 -128 51 -214 206 -330 44 -34 96 -75 115 -92 123
-114 194 -335 143 -449 -29 -65 -71 -114 -112 -131 -19 -7 -73 -17 -120 -21
-73 -6 -93 -4 -142 15 -58 21 -113 71 -141 127 -26 50 -97 253 -112 316 -30
131 -95 763 -95 921 l0 101 37 33 c108 94 335 283 358 298 82 54 244 71 354
37z"/>
<path d="M3755 3689 c-43 -12 -102 -64 -125 -110 -11 -21 -23 -39 -27 -39 -3
0 -3 24 1 54 5 44 2 58 -12 77 -12 14 -25 20 -35 16 -15 -5 -17 -25 -18 -144
0 -76 -4 -205 -9 -288 -4 -82 -6 -187 -3 -233 5 -72 9 -86 28 -98 44 -29 74 6
48 56 -17 36 -31 160 -17 160 5 0 36 -14 68 -30 66 -34 152 -40 209 -16 127
53 196 342 117 496 -43 85 -135 126 -225 99z m140 -72 c106 -106 73 -421 -50
-473 -81 -33 -176 -6 -208 59 -10 20 -25 37 -33 37 -10 0 -14 14 -14 53 0 136
77 297 165 345 11 6 40 12 64 12 35 0 49 -6 76 -33z"/>
<path d="M4767 3683 c-4 -3 -7 -56 -8 -117 -1 -61 -4 -135 -7 -164 l-7 -54
-39 31 c-58 46 -97 45 -143 -4 -41 -44 -74 -146 -80 -255 -4 -75 -2 -90 19
-130 45 -87 128 -101 206 -35 l41 36 7 -38 c7 -37 18 -53 39 -53 6 0 10 94 10
263 1 160 6 306 15 376 l14 114 -23 18 c-25 20 -34 23 -44 12z m-62 -347 c39
-39 50 -95 37 -183 -20 -128 -66 -203 -124 -203 -60 0 -85 60 -75 178 14 179
92 278 162 208z"/>
<path d="M5314 3677 c-2 -7 -3 -170 -2 -363 4 -375 8 -408 52 -402 23 3 23 -1
6 138 -15 114 -7 504 11 568 9 33 9 45 -1 57 -15 18 -59 20 -66 2z"/>
<path d="M6304 3566 c-10 -25 0 -50 25 -62 29 -15 48 -9 57 19 12 38 -68 80
-82 43z"/>
<path d="M5980 3406 c-80 -44 -143 -333 -94 -427 35 -69 144 -82 204 -24 34
33 40 22 40 -76 0 -77 -14 -115 -56 -148 -44 -34 -143 -22 -176 22 -13 16 -20
19 -28 11 -33 -33 20 -75 119 -94 72 -13 120 0 160 45 l31 36 0 186 c0 103 5
215 11 250 l11 63 -36 38 c-19 20 -52 56 -73 79 -43 48 -76 59 -113 39z m99
-70 c35 -37 60 -134 50 -192 -18 -111 -52 -176 -100 -193 -40 -14 -74 2 -91
43 -25 59 -9 224 30 301 34 69 71 83 111 41z"/>
<path d="M4170 3384 c-78 -66 -123 -247 -89 -367 34 -125 183 -163 271 -69 72
78 90 241 37 347 -51 103 -153 144 -219 89z m144 -53 c65 -55 72 -255 13 -343
-46 -67 -131 -66 -172 3 -16 28 -20 52 -20 130 0 87 3 101 30 155 25 47 37 61
65 70 38 13 55 9 84 -15z"/>
<path d="M4981 3371 c-50 -50 -82 -134 -89 -232 -8 -133 35 -215 126 -239 150
-39 262 145 208 346 -17 65 -38 97 -89 134 -60 44 -105 42 -156 -9z m161 -51
c80 -86 52 -326 -44 -373 -33 -16 -40 -17 -72 -3 -54 23 -71 64 -71 176 0 84
3 102 28 151 19 40 37 61 60 73 39 19 64 13 99 -24z"/>
<path d="M5539 3371 c-101 -107 -119 -350 -31 -434 37 -35 101 -51 151 -37
162 43 191 363 43 476 -65 49 -112 48 -163 -5z m163 -51 c80 -86 52 -326 -44
-373 -33 -16 -40 -17 -72 -3 -54 23 -71 64 -71 176 0 84 3 102 28 151 19 40
37 61 60 73 39 19 64 13 99 -24z"/>
<path d="M6545 3400 c-57 -22 -104 -133 -113 -267 -9 -145 39 -218 143 -217
83 0 175 61 175 116 0 15 -5 28 -12 28 -6 0 -35 -22 -64 -50 -47 -44 -58 -50
-97 -50 -57 0 -78 23 -85 91 l-5 50 36 -14 c63 -27 145 6 191 76 47 74 30 137
-52 198 -49 36 -89 49 -117 39z m87 -61 c30 -16 51 -74 43 -120 -15 -86 -109
-130 -154 -73 -25 32 -26 65 -5 127 23 68 66 93 116 66z"/>
<path d="M6302 3378 c-9 -9 -12 -70 -12 -213 0 -165 3 -204 16 -223 8 -12 23
-22 32 -22 15 0 17 18 17 187 0 104 3 202 7 218 4 17 4 36 0 42 -11 17 -47 24
-60 11z"/>
<path d="M3540 2628 c-54 -15 -104 -61 -141 -130 -32 -60 -34 -68 -34 -163 0
-86 3 -106 23 -144 32 -59 88 -111 228 -213 151 -109 176 -135 172 -178 -4
-47 -41 -71 -120 -77 -100 -8 -169 11 -230 63 -60 51 -100 57 -106 16 -8 -52
70 -102 201 -129 74 -15 96 -16 157 -5 153 26 221 98 180 189 -19 43 -62 81
-221 196 -171 123 -214 185 -207 297 5 88 43 155 108 188 67 33 105 30 150
-15 55 -56 74 -130 66 -259 -6 -105 0 -124 35 -124 26 0 49 39 49 82 0 73 -31
231 -55 277 -29 56 -78 105 -127 125 -42 18 -77 19 -128 4z"/>
<path d="M4479 2628 c-20 -18 -11 -879 10 -920 16 -30 34 -40 57 -31 13 5 15
15 10 47 -23 161 -28 263 -23 496 3 143 11 282 18 317 11 57 11 64 -6 83 -21
23 -45 26 -66 8z"/>
<path d="M5600 2631 c-108 -33 -180 -136 -188 -271 -9 -164 37 -230 283 -402
113 -80 147 -117 143 -158 -4 -47 -41 -71 -120 -77 -100 -8 -169 11 -230 63
-57 48 -100 56 -106 20 -10 -52 64 -103 192 -131 157 -35 305 6 349 98 19 37
19 38 -5 85 -19 39 -48 65 -170 157 -176 132 -198 152 -233 217 -24 43 -27 58
-23 118 12 220 249 288 310 88 7 -25 13 -92 13 -158 0 -121 5 -140 35 -140 27
0 50 38 50 85 0 69 -29 225 -50 265 -58 114 -156 169 -250 141z"/>
<path d="M6530 2628 c-13 -11 -14 -70 -10 -453 4 -348 8 -446 19 -467 16 -30
34 -40 57 -31 13 5 15 15 9 52 -34 224 -34 593 0 836 3 22 2 45 -2 52 -13 19
-56 25 -73 11z"/>
<path d="M7522 2488 c-7 -7 -12 -24 -12 -39 0 -50 78 -81 100 -40 15 29 13 39
-15 66 -26 27 -54 32 -73 13z"/>
<path d="M7257 2463 c-3 -5 -8 -64 -11 -133 -9 -157 -10 -160 -47 -160 -57 0
-92 -36 -64 -64 10 -10 27 -12 55 -9 l40 6 1 -174 c1 -188 11 -242 46 -247 37
-6 45 19 33 109 -11 91 -14 278 -4 303 3 9 16 16 29 16 35 0 83 20 89 37 11
27 -14 43 -67 43 l-50 0 6 63 c4 34 9 89 13 123 5 49 3 63 -10 77 -18 17 -51
23 -59 10z"/>
<path d="M4127 2285 c-139 -49 -221 -360 -139 -521 38 -75 90 -105 179 -105
62 0 101 18 142 68 115 139 99 412 -30 514 -30 24 -99 60 -111 59 -2 -1 -20
-7 -41 -15z m128 -97 c47 -45 69 -131 63 -248 -9 -144 -69 -230 -161 -230 -83
0 -134 105 -124 257 12 195 127 310 222 221z"/>
<path d="M6177 2285 c-48 -16 -60 -27 -96 -83 -47 -75 -73 -165 -74 -262 -1
-103 15 -166 56 -215 38 -46 81 -65 147 -65 67 0 110 19 148 66 54 65 75 135
75 244 0 137 -39 227 -122 284 -54 38 -91 46 -134 31z m128 -98 c45 -45 60
-102 60 -227 -1 -88 -5 -113 -23 -151 -36 -74 -64 -94 -129 -94 -48 0 -58 4
-79 28 -64 74 -72 252 -16 371 50 107 124 136 187 73z"/>
<path d="M8787 2280 c-43 -34 -77 -115 -77 -185 0 -107 46 -166 211 -270 74
-46 88 -77 44 -97 -20 -9 -36 -9 -71 0 -55 15 -148 73 -164 102 -16 31 -54 23
-58 -12 -3 -22 7 -35 59 -76 70 -57 128 -78 195 -68 62 8 130 39 144 66 22 41
5 63 -97 129 -112 73 -148 104 -170 145 -28 54 -11 158 34 208 22 25 85 24
107 -1 10 -11 22 -48 28 -83 10 -53 9 -73 -4 -112 -15 -44 -14 -47 3 -56 46
-25 66 -3 75 87 9 82 -8 133 -57 178 -73 66 -153 84 -202 45z"/>
<path d="M7798 2274 c-30 -16 -75 -78 -101 -139 -30 -72 -40 -129 -40 -216 1
-125 43 -213 120 -245 49 -21 142 -18 180 6 43 26 88 89 109 153 23 68 23 214
0 277 -51 138 -176 215 -268 164z m151 -79 c48 -41 66 -103 66 -230 0 -98 -3
-115 -26 -160 -31 -61 -78 -95 -131 -95 -84 0 -135 104 -125 257 11 188 123
306 216 228z"/>
<path d="M8180 2275 c-9 -11 -12 -77 -11 -282 2 -286 7 -313 52 -313 28 0 33
21 21 103 -20 134 11 272 83 377 42 60 74 78 110 62 56 -25 84 -145 90 -382 4
-132 6 -146 25 -159 16 -11 23 -11 35 -1 32 26 15 344 -24 455 -24 66 -50 99
-103 126 -75 38 -133 17 -173 -62 -35 -69 -40 -68 -45 12 -4 65 -7 74 -26 77
-11 2 -27 -4 -34 -13z"/>
<path d="M4739 2259 c-84 -84 -132 -367 -82 -480 31 -69 72 -94 158 -94 59 0
79 5 123 30 62 34 92 71 92 113 0 50 -19 48 -78 -11 -32 -30 -67 -60 -79 -66
-28 -14 -88 -14 -115 0 -25 14 -48 68 -48 115 0 35 1 36 28 29 75 -19 102 -17
155 9 89 45 141 140 118 217 -13 42 -94 123 -146 145 -50 21 -101 18 -126 -7z
m165 -79 c27 -32 42 -103 31 -142 -34 -110 -173 -141 -204 -45 -12 36 -2 106
21 151 38 74 106 90 152 36z"/>
<path d="M6686 2248 c-9 -35 -7 -292 4 -391 7 -71 14 -95 35 -123 32 -41 73
-64 116 -64 35 0 119 36 119 51 0 21 19 7 29 -21 13 -38 57 -43 69 -7 4 12 7
141 7 287 l0 265 -39 0 -39 0 -2 -180 c-2 -199 -12 -250 -63 -298 -44 -41 -76
-44 -111 -10 -47 47 -54 94 -46 293 4 97 4 186 1 198 -11 32 -71 31 -80 0z"/>
<path d="M7500 1992 c0 -248 1 -270 18 -285 10 -10 27 -17 38 -17 18 0 19 8
15 188 -2 118 1 218 9 271 12 78 11 85 -6 98 -10 7 -30 13 -46 13 l-28 0 0
-268z"/>
</g>
</svg>
