<?xml version="1.0" standalone="no"?>
<!DOCTYPE svg PUBLIC "-//W3C//DTD SVG 20010904//EN"
 "http://www.w3.org/TR/2001/REC-SVG-20010904/DTD/svg10.dtd">
<svg version="1.0" xmlns="http://www.w3.org/2000/svg"
 width="1296.000000pt" height="1423.000000pt" viewBox="0 0 1296.000000 1423.000000"
 preserveAspectRatio="xMidYMid meet">

<g transform="translate(0.000000,1423.000000) scale(0.100000,-0.100000)"
fill="#000000" stroke="none">
<path d="M10274 13381 c-28 -12 -73 -67 -96 -118 -63 -142 -40 -265 107 -579
25 -53 45 -103 45 -110 0 -26 -78 -269 -113 -354 -42 -101 -98 -305 -122 -445
-9 -55 -35 -172 -58 -260 -39 -151 -41 -168 -41 -310 -1 -82 5 -270 12 -417
15 -321 6 -444 -59 -848 -13 -84 -19 -106 -84 -340 -25 -91 -54 -217 -66 -280
-11 -63 -35 -169 -53 -235 -34 -123 -57 -235 -76 -385 -11 -79 -20 -135 -66
-410 -25 -155 -26 -683 -1 -905 31 -276 45 -374 86 -595 62 -339 84 -589 72
-825 -7 -142 -16 -176 -51 -195 -33 -18 -50 -11 -88 32 -20 23 -86 93 -145
156 -107 113 -137 152 -214 287 -23 39 -73 123 -111 188 -39 65 -85 153 -102
195 -18 42 -56 127 -86 189 -71 151 -120 283 -149 407 -13 56 -29 116 -36 132
-6 16 -27 90 -45 164 -19 74 -46 170 -59 213 -14 43 -32 116 -40 163 -18 103
-47 220 -85 339 -16 50 -43 158 -60 240 -17 83 -37 179 -45 215 -8 36 -24 128
-35 206 -20 138 -56 289 -125 534 -20 69 -40 143 -45 165 -24 112 -89 355
-103 388 -23 54 -50 47 -59 -13 -27 -170 -68 -513 -73 -605 -3 -60 -10 -175
-15 -255 -5 -80 -15 -268 -20 -419 -6 -151 -18 -349 -26 -440 -16 -180 -39
-456 -54 -646 -5 -66 -16 -196 -25 -290 -8 -93 -15 -249 -15 -345 -1 -96 -5
-227 -11 -290 -21 -275 -22 -381 -4 -473 l17 -87 -36 -53 c-20 -29 -36 -56
-36 -61 0 -5 -13 -34 -28 -65 -40 -78 -67 -166 -94 -301 -19 -99 -22 -148 -23
-345 l0 -230 57 -147 c33 -87 72 -168 95 -200 21 -29 46 -65 56 -80 19 -30 84
-68 117 -68 32 0 68 29 79 63 36 115 46 215 45 447 0 129 -6 271 -12 315 -7
44 -19 136 -27 205 -8 69 -24 157 -35 195 -11 39 -30 115 -40 170 l-19 100 44
41 c25 23 82 66 127 96 237 155 288 173 478 172 106 0 137 -4 205 -27 196 -64
207 -69 322 -160 60 -48 105 -106 155 -197 14 -25 39 -70 57 -101 50 -89 157
-395 186 -531 14 -68 35 -163 46 -213 10 -49 28 -142 39 -205 11 -63 29 -158
40 -210 47 -227 64 -377 105 -970 14 -215 25 -733 26 -1278 l0 -323 -34 -39
c-18 -22 -58 -84 -87 -137 -29 -54 -70 -123 -91 -154 -20 -31 -47 -75 -58 -98
-33 -63 -148 -231 -188 -273 -46 -48 -131 -85 -251 -110 -80 -16 -122 -19
-237 -15 -213 8 -305 30 -527 123 -109 46 -135 54 -190 54 -60 0 -89 -7 -293
-64 -309 -88 -401 -101 -615 -93 -225 8 -507 82 -602 157 -60 47 -86 122 -107
305 -25 218 -24 247 4 397 35 190 80 397 117 538 17 63 39 155 49 204 10 48
28 118 39 155 10 36 24 113 29 171 26 269 33 322 57 415 17 64 29 150 35 240
5 77 17 167 25 200 9 33 24 103 34 155 59 309 82 401 133 533 25 61 63 180 87
262 23 83 66 206 95 275 30 69 68 159 85 200 17 41 52 104 78 140 136 186 193
310 195 425 2 60 -3 80 -30 137 -18 38 -45 84 -60 105 -24 32 -28 47 -31 119
-5 114 14 177 127 417 28 59 62 149 77 200 14 51 34 117 45 147 51 136 61 394
29 715 -40 403 -68 560 -116 665 -14 30 -41 108 -60 173 -19 65 -39 127 -45
138 -12 24 -72 190 -139 384 -26 77 -60 164 -74 193 -15 28 -34 76 -43 105 -8
28 -37 100 -64 158 -28 61 -53 134 -58 170 -6 35 -27 111 -46 169 -20 58 -51
182 -70 275 -19 94 -48 217 -64 275 -51 177 -106 626 -125 1015 -12 243 -7
846 10 1212 8 170 1 242 -28 272 -18 21 -21 21 -38 6 -15 -13 -18 -44 -25
-233 -26 -742 -21 -1252 16 -1617 40 -399 61 -537 108 -705 23 -79 51 -198 62
-265 11 -66 36 -165 54 -221 19 -56 46 -149 59 -207 14 -59 39 -132 54 -164
16 -32 46 -105 67 -163 21 -58 50 -130 65 -160 15 -30 30 -68 34 -83 9 -38
129 -372 165 -462 16 -38 34 -94 40 -124 6 -30 30 -99 52 -155 50 -124 72
-227 99 -471 11 -104 25 -226 30 -269 13 -106 13 -330 -1 -441 -6 -49 -21
-119 -34 -155 -13 -36 -34 -106 -48 -155 -14 -50 -52 -147 -85 -215 -92 -193
-123 -296 -123 -405 0 -103 7 -129 58 -199 79 -110 88 -163 47 -276 -29 -83
-56 -130 -142 -253 -70 -99 -92 -139 -126 -229 -13 -35 -42 -104 -64 -153 -23
-50 -60 -153 -82 -230 -23 -77 -55 -178 -71 -225 -17 -47 -46 -128 -65 -180
-18 -52 -38 -129 -44 -170 -6 -41 -19 -104 -30 -140 -10 -36 -22 -90 -26 -120
-3 -30 -17 -98 -30 -150 -15 -59 -28 -151 -34 -241 -6 -92 -17 -169 -30 -210
-23 -76 -35 -154 -55 -374 -8 -88 -19 -173 -25 -190 -5 -16 -26 -97 -45 -180
-19 -82 -42 -175 -50 -205 -24 -86 -83 -355 -100 -460 -9 -52 -18 -97 -21
-101 -16 -27 -23 -167 -14 -293 25 -353 70 -457 234 -536 89 -43 260 -90 424
-116 192 -30 482 -9 687 49 50 14 117 33 150 41 33 8 85 22 115 31 91 25 159
20 258 -21 260 -108 354 -128 597 -128 203 0 306 18 420 75 107 54 130 84 342
437 29 48 64 108 78 135 25 46 44 65 30 30 -3 -10 -22 -79 -41 -153 -54 -213
-45 -346 27 -382 49 -26 87 -22 146 15 104 64 193 231 193 361 0 43 -9 88 -29
147 -76 219 -100 269 -126 269 -7 0 -17 5 -20 11 -4 5 -9 213 -12 462 -5 520
-20 1083 -32 1207 -4 47 -13 157 -20 245 -22 300 -39 433 -91 685 -11 52 -27
136 -35 185 -9 50 -23 119 -31 155 -8 36 -25 125 -40 199 -14 73 -43 183 -66
245 -22 61 -42 125 -45 141 -6 29 -4 28 54 -26 35 -33 72 -59 91 -64 74 -16
143 38 182 141 46 125 20 609 -55 1004 -44 229 -58 327 -91 610 -20 182 -28
490 -15 685 6 100 24 254 45 375 19 113 38 237 41 275 10 102 43 265 76 380
16 54 34 131 40 170 12 80 69 314 104 425 42 134 82 375 110 661 19 194 19
287 0 554 -24 339 -22 371 30 585 25 102 54 234 65 294 27 145 73 313 115 411
18 44 48 127 65 184 26 84 35 101 45 90 46 -51 117 -145 143 -190 17 -30 64
-86 104 -126 58 -57 91 -81 161 -113 86 -39 175 -72 228 -84 48 -10 91 44 57
71 -7 6 -45 20 -83 31 -39 12 -109 39 -156 61 -101 47 -173 114 -253 236 -29
44 -83 116 -120 160 -43 52 -64 85 -60 95 22 51 64 340 64 433 -1 204 -120
382 -226 338z m93 -127 c48 -87 62 -222 42 -401 -11 -100 -22 -143 -38 -143
-13 0 -84 151 -117 251 -41 120 -39 193 6 277 29 55 37 63 59 60 18 -2 32 -15
48 -44z m-2197 -3719 c17 -66 51 -197 75 -290 25 -94 56 -245 70 -335 37 -237
118 -617 155 -725 24 -68 48 -167 85 -340 14 -66 33 -142 42 -170 9 -27 33
-113 54 -190 20 -77 55 -208 77 -292 39 -147 102 -311 176 -460 20 -40 47
-101 60 -135 13 -35 51 -110 85 -167 33 -56 61 -105 61 -107 0 -3 -19 6 -42
20 -57 32 -266 102 -352 117 -42 7 -113 9 -180 6 -131 -6 -209 -30 -306 -91
-36 -23 -76 -46 -90 -53 -14 -6 -65 -41 -114 -77 -65 -49 -91 -64 -97 -54 -23
37 -23 173 0 493 6 72 10 198 11 280 0 83 7 231 16 330 8 99 19 239 24 310 9
128 16 216 45 510 15 156 29 390 46 775 19 437 27 576 39 670 11 91 20 126 26
105 2 -6 17 -64 34 -130z m-285 -3607 c3 -24 18 -83 31 -132 39 -139 84 -534
84 -741 0 -105 -31 -379 -44 -392 -10 -11 -98 101 -131 166 -9 18 -37 90 -62
160 l-45 126 5 210 c4 180 9 228 32 335 25 114 99 310 117 310 3 0 9 -19 13
-42z m2061 -4048 c29 -80 30 -140 4 -215 -40 -115 -116 -201 -172 -193 -22 3
-23 6 -22 108 0 83 6 123 26 190 14 47 38 132 53 190 16 58 30 109 33 113 4 8
15 -21 78 -193z"/>
<path d="M2534 13253 c-15 -15 -16 -32 -11 -139 4 -67 13 -175 22 -240 33
-262 46 -353 60 -434 8 -47 24 -148 35 -225 11 -77 36 -214 55 -305 44 -217
96 -544 150 -940 19 -141 67 -384 100 -505 14 -49 34 -143 45 -207 11 -65 30
-142 41 -170 59 -147 74 -273 74 -608 0 -295 -3 -315 -111 -760 -76 -313 -93
-409 -101 -591 -7 -163 1 -193 69 -268 27 -29 58 -72 69 -94 52 -100 51 -98
50 -497 -1 -206 -4 -397 -6 -425 -3 -27 -10 -138 -15 -245 -5 -107 -19 -256
-30 -330 -12 -74 -27 -182 -34 -240 -15 -119 -77 -438 -107 -550 -11 -41 -26
-117 -34 -168 -8 -51 -24 -125 -35 -165 -27 -101 -86 -383 -105 -502 -17 -106
-32 -174 -127 -565 -48 -198 -60 -260 -59 -326 0 -99 31 -271 70 -387 l29 -86
-40 -42 c-46 -48 -58 -74 -99 -207 -51 -166 -57 -291 -19 -410 19 -59 39 -99
117 -239 67 -121 195 -232 268 -233 45 0 52 -9 59 -75 18 -155 38 -222 82
-274 37 -44 74 -61 149 -68 l65 -6 0 -43 c0 -49 40 -209 69 -276 26 -61 103
-143 153 -163 23 -9 72 -19 108 -22 74 -6 119 9 156 53 l21 25 25 -38 c14 -21
41 -47 61 -57 34 -19 38 -19 134 -2 107 20 250 71 327 118 l49 29 36 -31 c60
-51 186 -106 299 -129 103 -21 160 -15 287 33 185 71 339 184 429 318 49 71
91 215 106 356 20 195 98 364 232 507 21 22 38 43 38 48 0 4 -11 13 -25 19
-40 18 -111 -5 -280 -92 -201 -102 -313 -138 -468 -151 -181 -14 -196 -19
-472 -132 -60 -25 -123 -52 -140 -61 -36 -19 -158 -22 -237 -5 -82 18 -190 72
-301 150 -100 71 -201 119 -337 161 -76 24 -164 67 -202 100 -14 13 -66 68
-113 123 -158 181 -333 444 -386 579 -39 99 -38 106 14 106 55 0 133 -52 285
-191 139 -127 164 -146 216 -160 55 -15 175 -6 256 20 125 39 238 118 462 324
65 60 118 103 119 95 9 -166 30 -264 79 -373 44 -98 166 -247 265 -322 90 -69
284 -159 392 -183 116 -25 278 -27 443 -5 169 22 229 38 340 92 156 76 262
205 290 351 25 135 32 387 29 1032 -6 1018 -5 1127 14 1535 23 478 28 1671 9
1890 -15 167 -73 482 -103 557 -11 29 -38 100 -59 158 -102 284 -214 452 -368
553 -65 43 -268 142 -354 173 -24 9 -71 20 -105 25 -35 5 -93 13 -130 19 -38
5 -116 9 -175 10 -88 0 -122 -5 -190 -26 -132 -42 -262 -113 -365 -200 -28
-24 -54 -44 -57 -44 -3 0 -6 28 -6 63 0 64 -30 393 -51 565 -7 56 -9 140 -5
210 3 64 1 221 -5 347 -6 127 -13 349 -14 495 -2 178 -9 301 -20 375 -9 61
-20 182 -25 270 -5 88 -14 237 -20 330 -6 94 -10 199 -8 235 l3 65 51 -150
c28 -82 65 -184 82 -225 17 -41 53 -147 81 -235 54 -174 101 -313 151 -445 18
-47 49 -132 70 -190 47 -131 121 -321 165 -420 18 -41 47 -109 65 -150 132
-306 325 -637 449 -773 93 -100 386 -286 452 -287 67 0 81 50 58 210 -51 344
-47 1267 7 1690 26 204 46 322 80 470 58 255 84 384 99 497 8 61 39 234 69
384 30 151 57 297 61 324 23 171 69 408 100 511 46 152 66 250 56 277 -20 52
-77 39 -86 -20 -3 -21 -17 -81 -31 -133 -57 -208 -75 -292 -119 -558 -26 -152
-61 -349 -80 -437 -18 -88 -43 -223 -55 -300 -23 -155 -60 -348 -90 -464 -53
-212 -100 -533 -122 -841 -20 -283 -16 -1169 6 -1320 28 -194 28 -182 4 -174
-34 11 -188 103 -249 150 -118 90 -216 224 -361 493 -91 168 -208 424 -278
606 -21 55 -48 123 -60 150 -12 28 -37 93 -55 145 -18 52 -52 145 -75 205 -23
61 -53 146 -67 190 -14 44 -31 92 -39 106 -7 15 -22 57 -33 95 -48 170 -83
278 -100 312 -25 50 -168 477 -176 526 -4 22 -18 68 -32 103 -26 65 -47 79
-72 49 -19 -22 -26 -475 -11 -691 6 -99 15 -245 20 -325 5 -80 16 -194 24
-253 11 -72 18 -204 20 -390 2 -155 9 -381 14 -502 6 -121 7 -285 4 -365 -7
-148 -3 -230 23 -475 8 -77 17 -208 21 -290 l7 -151 -50 -57 c-28 -31 -61 -74
-75 -95 -13 -20 -54 -82 -90 -137 -82 -125 -92 -145 -128 -253 -57 -173 -60
-191 -60 -359 0 -168 12 -238 64 -392 49 -141 143 -281 256 -381 94 -82 143
-102 194 -78 22 11 40 31 54 62 37 77 34 154 -47 1505 l-9 155 45 58 c31 38
77 79 142 122 193 129 277 152 511 141 180 -9 307 -40 455 -111 280 -136 385
-271 531 -684 55 -153 110 -419 125 -607 24 -282 16 -1457 -13 -2038 -7 -137
-13 -349 -12 -470 0 -121 2 -557 3 -970 3 -769 0 -856 -36 -985 -18 -63 -66
-141 -114 -187 -115 -107 -361 -173 -647 -173 -156 0 -244 20 -388 89 -153 73
-231 137 -336 276 -55 73 -59 80 -91 175 -29 86 -35 114 -42 224 -3 43 -8 95
-11 116 -6 35 -1 45 82 156 101 136 175 254 192 303 7 19 12 61 12 93 0 49 -4
63 -25 83 -43 44 -99 29 -183 -48 -41 -38 -122 -179 -122 -212 0 -6 -13 -52
-30 -103 -21 -64 -30 -113 -30 -157 l0 -64 -137 -129 c-269 -254 -388 -329
-549 -348 -96 -12 -136 1 -196 60 -77 75 -205 187 -263 228 -86 61 -110 70
-188 67 l-72 -2 -19 49 c-27 73 -65 270 -66 342 0 64 33 244 75 412 50 197 95
398 105 470 12 90 50 275 96 465 18 77 40 181 49 230 8 50 19 106 25 125 14
46 107 513 114 570 3 25 17 126 30 225 34 245 54 616 58 1065 l3 375 -29 70
c-32 77 -69 135 -122 192 -19 21 -37 49 -41 62 -9 36 5 274 22 371 8 46 37
177 64 290 129 533 125 504 125 835 0 333 -11 436 -64 595 -21 63 -48 169 -60
235 -11 66 -30 150 -40 187 -27 90 -86 392 -100 508 -7 52 -25 176 -40 275
-16 99 -31 209 -34 245 -4 36 -19 130 -35 210 -67 328 -91 459 -91 486 0 15
-15 116 -34 223 -19 108 -37 225 -41 261 -3 36 -15 137 -25 225 -11 88 -22
193 -24 233 -6 97 -31 126 -72 85z m1469 -4990 c3 -27 11 -131 17 -233 6 -102
18 -293 27 -425 19 -288 28 -705 16 -760 -5 -23 -15 -41 -24 -43 -26 -5 -159
128 -219 219 -62 94 -101 188 -131 317 -28 119 -27 339 2 442 38 139 73 223
121 294 85 124 169 236 179 236 3 0 9 -21 12 -47z m409 -4322 c-3 -37 -26 -86
-80 -168 -52 -79 -114 -164 -117 -161 -6 6 52 194 72 233 27 52 102 137 117
132 6 -2 10 -19 8 -36z m-1593 -1058 c104 -167 205 -298 331 -434 84 -90 109
-111 173 -142 42 -20 94 -41 116 -47 110 -29 225 -84 332 -157 200 -136 334
-181 511 -170 68 3 96 10 130 29 24 14 61 31 83 38 22 7 67 25 100 41 129 59
226 86 335 93 58 4 132 12 165 17 70 12 239 75 346 129 l76 38 -33 -62 c-52
-97 -91 -230 -104 -346 -27 -253 -87 -363 -270 -494 -97 -70 -278 -145 -351
-146 -107 0 -281 58 -343 115 l-36 32 21 42 c27 57 51 209 47 298 -4 82 -20
108 -75 119 -45 9 -76 -26 -105 -117 -17 -57 -23 -97 -23 -174 0 -55 4 -114 9
-131 8 -29 6 -31 -52 -62 -87 -46 -183 -81 -275 -98 -78 -15 -81 -15 -101 6
-34 34 -28 191 14 403 35 177 35 199 -7 205 -34 5 -49 -21 -73 -134 -53 -253
-105 -416 -141 -447 -12 -9 -34 -17 -51 -17 -108 0 -180 59 -220 180 -51 152
-62 240 -30 240 9 0 51 20 92 44 115 67 160 128 160 216 0 65 -26 95 -75 87
-31 -5 -105 -72 -144 -130 -8 -12 -32 -46 -54 -74 l-39 -53 -64 0 c-82 0 -127
21 -147 69 -21 49 -37 124 -46 217 -7 74 -6 81 15 107 63 76 57 221 -12 257
-61 33 -106 -44 -106 -185 0 -43 -1 -45 -27 -45 -68 0 -162 102 -248 267 -105
200 -113 279 -51 486 32 107 50 150 76 180 14 16 18 11 51 -70 20 -49 74 -148
120 -220z m175 -479 c15 -39 -5 -161 -25 -149 -10 7 -13 148 -2 158 11 11 20
8 27 -9z m502 -429 c10 -25 -43 -102 -88 -129 -23 -14 -44 -23 -47 -21 -2 3
20 41 49 85 51 78 75 96 86 65z m890 -220 c24 -59 15 -128 -31 -233 l-19 -42
-18 47 c-30 80 -21 201 18 244 24 27 33 24 50 -16z"/>
</g>
</svg>
