<?xml version="1.0" standalone="no"?>
<!DOCTYPE svg PUBLIC "-//W3C//DTD SVG 20010904//EN"
 "http://www.w3.org/TR/2001/REC-SVG-20010904/DTD/svg10.dtd">
<svg version="1.0" xmlns="http://www.w3.org/2000/svg"
 width="512.000000pt" height="512.000000pt" viewBox="0 0 512.000000 512.000000"
 preserveAspectRatio="xMidYMid meet">

<g transform="translate(0.000000,512.000000) scale(0.100000,-0.100000)"
fill="#000000" stroke="none">
<path d="M0 3338 c0 -1758 1 -1782 19 -1741 11 23 30 49 44 58 l25 16 5 267
c5 301 18 400 87 652 61 226 71 299 77 555 5 191 2 269 -17 458 -23 244 -22
276 20 356 26 50 86 106 140 130 25 10 83 27 130 36 205 40 549 132 792 211
l136 45 7 40 c9 52 56 106 103 119 57 16 431 60 508 60 51 0 82 -6 120 -24 53
-25 116 -82 140 -127 7 -14 124 -338 259 -720 135 -382 265 -735 289 -784 64
-129 154 -251 266 -359 182 -174 375 -278 630 -338 73 -17 137 -21 445 -27
382 -8 391 -9 500 -63 174 -87 304 -289 305 -474 0 -34 4 -43 25 -52 15 -7 34
-30 45 -55 19 -42 20 -28 20 1751 l0 1792 -2560 0 -2560 0 0 -1782z"/>
<path d="M1828 4412 c-186 -24 -198 -26 -198 -46 0 -12 11 -118 25 -236 30
-264 31 -304 4 -377 -26 -67 -97 -144 -152 -164 -20 -7 -37 -16 -37 -20 0 -14
96 -91 160 -130 230 -136 505 -154 815 -52 44 14 81 27 83 28 7 6 -339 959
-355 977 -24 28 -75 48 -115 47 -18 -1 -122 -13 -230 -27z"/>
<path d="M1375 4179 c-168 -56 -499 -146 -690 -188 -221 -49 -248 -60 -275
-103 -23 -38 -24 -68 -9 -240 10 -109 15 -128 29 -128 21 0 944 197 986 210
17 6 42 23 57 38 46 48 49 71 32 226 -20 181 -25 216 -33 215 -4 0 -47 -14
-97 -30z"/>
<path d="M858 3440 c-223 -48 -414 -90 -422 -93 -14 -6 -16 -32 -16 -194 0
-264 -14 -358 -99 -678 -47 -176 -62 -298 -68 -561 l-6 -241 139 -26 c164 -31
562 -97 586 -97 10 0 52 35 95 78 120 121 254 203 431 262 189 63 193 64 1025
70 l759 5 24 28 c22 26 24 36 24 141 l0 112 -40 23 c-22 12 -76 49 -119 81
l-80 59 -81 -109 c-44 -60 -89 -114 -100 -120 -32 -17 -70 -11 -95 15 -43 42
-34 71 58 198 46 63 87 120 92 126 4 8 -4 25 -22 44 -17 18 -42 49 -58 70 -15
20 -31 37 -35 37 -4 0 -39 -24 -76 -53 -192 -147 -222 -160 -269 -112 -26 25
-32 63 -15 94 5 10 68 62 140 116 71 54 130 99 130 100 0 14 -72 155 -79 155
-5 0 -87 -34 -183 -75 -95 -41 -185 -75 -200 -75 -55 0 -94 71 -67 119 11 20
58 45 204 108 105 45 190 86 190 90 0 4 -9 33 -19 64 l-19 57 -83 -29 c-443
-149 -863 -67 -1155 225 -42 42 -78 76 -80 75 -2 -1 -187 -40 -411 -89z"/>
<path d="M3497 2070 c-9 -136 -54 -208 -163 -257 -36 -17 -100 -18 -824 -23
l-785 -6 -96 -26 c-168 -46 -297 -111 -408 -207 -34 -30 -34 -30 -10 -35 26
-6 285 -37 504 -61 401 -43 843 -72 1349 -86 562 -16 892 4 1253 76 168 34
383 98 496 149 64 29 67 37 46 138 -26 123 -113 234 -223 285 l-61 28 -330 6
c-225 5 -360 12 -425 23 -95 15 -256 58 -291 76 -10 6 -20 10 -22 10 -2 0 -7
-40 -10 -90z"/>
<path d="M170 1176 c0 -220 4 -355 11 -373 15 -41 48 -72 99 -97 44 -21 57
-21 620 -24 l576 -3 22 69 c30 93 58 132 114 160 l47 24 333 -36 c183 -20 354
-42 380 -47 54 -12 101 -57 132 -127 l20 -43 760 4 c811 4 841 6 1091 58 209
44 507 165 555 226 19 24 20 40 20 265 0 188 -3 239 -12 235 -286 -122 -514
-184 -843 -227 -260 -35 -476 -43 -900 -37 -741 12 -1376 61 -2135 168 -261
36 -758 119 -867 144 l-23 5 0 -344z"/>
<path d="M5102 944 c-20 -74 -84 -133 -221 -202 -205 -104 -456 -173 -762
-209 -122 -14 -259 -17 -879 -17 -404 -1 -747 2 -762 7 -42 11 -91 60 -117
116 -21 44 -28 50 -60 55 -102 16 -603 67 -614 63 -7 -2 -23 -37 -35 -76 -25
-77 -57 -122 -106 -149 -28 -16 -83 -17 -626 -17 l-595 0 -65 23 c-131 47
-219 134 -246 244 -11 46 -12 -3 -13 -364 l-1 -418 2560 0 2560 0 0 495 c0
272 -1 495 -3 495 -2 0 -8 -20 -15 -46z"/>
</g>
</svg>
