<?xml version="1.0" standalone="no"?>
<!DOCTYPE svg PUBLIC "-//W3C//DTD SVG 20010904//EN"
 "http://www.w3.org/TR/2001/REC-SVG-20010904/DTD/svg10.dtd">
<svg version="1.0" xmlns="http://www.w3.org/2000/svg"
 width="512.000000pt" height="512.000000pt" viewBox="0 0 512.000000 512.000000"
 preserveAspectRatio="xMidYMid meet">

<g transform="translate(0.000000,512.000000) scale(0.100000,-0.100000)"
fill="#000000" stroke="none">
<path d="M0 2560 l0 -2560 728 1 c405 1 700 5 667 9 -146 20 -302 80 -418 164
-71 50 -168 149 -215 218 -49 72 -109 203 -134 293 -21 78 -22 100 -29 790 -7
766 -7 765 -65 968 -48 168 -104 292 -210 464 -79 128 -123 215 -158 313 -146
405 -117 854 80 1241 185 363 502 602 859 648 47 6 -123 9 -517 10 l-588 1 0
-2560z"/>
<path d="M1330 5114 c301 -43 481 -134 683 -343 224 -232 357 -545 387 -906
14 -167 13 -2911 0 -3045 -23 -218 -108 -400 -259 -551 -144 -143 -324 -232
-526 -259 -33 -4 392 -7 945 -7 553 0 978 3 945 7 -208 28 -386 117 -535 270
-146 149 -231 337 -250 555 -8 82 -10 586 -7 1600 4 1457 4 1482 25 1590 57
296 184 554 369 746 202 209 382 300 683 343 14 2 -540 3 -1230 3 -690 0
-1244 -1 -1230 -3z"/>
<path d="M4015 5109 c358 -46 673 -284 859 -648 193 -379 225 -804 91 -1208
-40 -119 -81 -204 -169 -346 -136 -219 -201 -387 -254 -646 -12 -62 -16 -210
-21 -786 -7 -681 -8 -713 -28 -786 -104 -374 -393 -630 -766 -678 -36 -5 243
-9 666 -10 l727 -1 0 2560 0 2560 -587 -1 c-395 -1 -565 -4 -518 -10z"/>
<path d="M1101 4810 c-312 -65 -561 -316 -674 -677 -77 -244 -76 -540 3 -775
36 -106 70 -175 157 -315 180 -292 279 -601 303 -948 5 -82 10 -404 10 -715 0
-622 0 -618 62 -747 23 -48 57 -93 114 -150 67 -68 95 -89 165 -122 100 -47
164 -61 267 -61 161 0 304 61 422 179 87 88 132 165 160 277 19 75 20 116 20
1588 0 1620 1 1579 -50 1766 -50 183 -200 422 -331 529 -153 123 -281 172
-464 177 -66 2 -140 -1 -164 -6z m576 -626 c86 -65 86 -183 0 -248 -28 -20
-40 -21 -410 -24 -210 -2 -397 0 -415 3 -18 3 -48 19 -67 36 -62 55 -70 138
-18 200 50 59 50 59 485 56 386 -2 397 -3 425 -23z m24 -584 c71 -20 118 -103
98 -175 -14 -49 -54 -93 -97 -105 -51 -14 -831 -14 -869 1 -67 25 -111 99 -99
164 8 42 50 93 91 111 37 16 818 20 876 4z m0 -600 c71 -20 118 -103 98 -175
-14 -49 -54 -93 -97 -105 -50 -13 -532 -13 -569 1 -67 25 -111 99 -99 164 8
42 50 93 91 111 37 16 520 20 576 4z m0 -1200 c100 -28 134 -155 63 -239 -36
-43 -77 -51 -266 -51 -177 0 -207 6 -250 47 -75 72 -50 197 47 239 36 16 351
19 406 4z m0 -600 c100 -28 134 -155 63 -239 -36 -43 -77 -51 -266 -51 -177 0
-207 6 -250 47 -75 72 -50 197 47 239 36 16 351 19 406 4z"/>
<path d="M3705 4800 c-331 -87 -568 -367 -672 -795 -16 -64 -18 -200 -20
-1619 -3 -1523 -3 -1551 17 -1629 27 -109 79 -198 165 -283 116 -115 259 -174
420 -174 262 1 488 161 576 410 24 65 24 67 30 745 7 741 10 792 69 1019 54
210 128 383 243 569 122 196 173 323 202 497 81 503 -145 1017 -530 1206 -150
73 -347 95 -500 54z m601 -611 c45 -21 84 -81 84 -129 0 -48 -39 -108 -84
-129 -40 -20 -59 -21 -417 -21 -224 0 -389 4 -411 10 -68 19 -116 105 -97 175
13 47 54 93 92 104 18 5 203 10 411 10 364 1 381 0 422 -20z m0 -600 c45 -21
84 -81 84 -129 0 -48 -39 -108 -84 -129 -41 -20 -59 -21 -447 -21 -245 0 -419
4 -441 10 -68 19 -116 105 -97 175 13 47 54 93 92 104 18 5 216 10 441 10 394
1 411 0 452 -20z m-300 -600 c45 -21 84 -81 84 -129 0 -48 -39 -108 -84 -129
-39 -20 -60 -21 -297 -21 -142 0 -270 5 -291 10 -68 19 -116 105 -97 175 13
47 54 93 92 104 18 5 149 10 291 10 243 1 262 0 302 -20z m-170 -1200 c45 -21
84 -81 84 -129 0 -48 -39 -108 -84 -129 -38 -19 -61 -21 -212 -21 -93 0 -186
5 -206 10 -68 19 -116 105 -97 175 13 47 54 93 92 104 18 5 110 10 206 10 157
1 179 -1 217 -20z m0 -600 c45 -21 84 -81 84 -129 0 -48 -39 -108 -84 -129
-38 -19 -61 -21 -212 -21 -93 0 -186 5 -206 10 -68 19 -116 105 -97 175 13 47
54 93 92 104 18 5 110 10 206 10 157 1 179 -1 217 -20z"/>
</g>
</svg>
